SplineFontDB: 3.0
FontName: Cotswolds
FullName: Cotswolds Regular
FamilyName: Cotswolds
Weight: Book
Copyright: Copyright csyde 2016\n"Cotswolds" is based on "Cotswald" by "csyde" (http://fontstruct.com/fontstructors/show/1065264/csyde)
Version: 1.0
ItalicAngle: 0
UnderlinePosition: 75
UnderlineWidth: 50
Ascent: 819
Descent: 205
InvalidEm: 0
sfntRevision: 0x00010000
LayerCount: 2
Layer: 0 1 "Back" 1
Layer: 1 1 "Fore" 0
XUID: [1021 273 464692840 7331337]
StyleMap: 0x0040
FSType: 4
OS2Version: 2
OS2_WeightWidthSlopeOnly: 0
OS2_UseTypoMetrics: 0
CreationTime: 1479445954
ModificationTime: 1481656893
PfmFamily: 17
TTFWeight: 400
TTFWidth: 5
LineGap: 0
VLineGap: 0
Panose: 0 0 4 0 0 0 0 0 0 0
OS2TypoAscent: 725
OS2TypoAOffset: 0
OS2TypoDescent: -299
OS2TypoDOffset: 0
OS2TypoLinegap: 0
OS2WinAscent: 768
OS2WinAOffset: 0
OS2WinDescent: 299
OS2WinDOffset: 0
HheadAscent: 768
HheadAOffset: 0
HheadDescent: -299
HheadDOffset: 0
OS2SubXSize: 512
OS2SubYSize: 512
OS2SubXOff: 0
OS2SubYOff: -150
OS2SupXSize: 512
OS2SupYSize: 512
OS2SupXOff: 0
OS2SupYOff: 512
OS2StrikeYSize: 51
OS2StrikeYPos: 205
OS2CapHeight: 2901
OS2XHeight: 1706
OS2Vendor: 'FSTR'
OS2CodePages: 00000001.00000000
OS2UnicodeRanges: 80000001.00000000.00000000.00000000
MarkAttachClasses: 1
DEI: 91125
ShortTable: maxp 16
  1
  0
  102
  76
  5
  0
  0
  2
  0
  0
  0
  0
  0
  0
  0
  0
EndShort

StartChar: .notdef
Encoding: 65536 -1 0
Width: 303
Flags: W
LayerCount: 2
Fore
SplineSet
362 102 m 1,0,-1
 362 218 l 1,1,-1
 247 218 l 1,2,-1
 247 102 l 1,3,-1
 362 102 l 1,0,-1
478 238 m 1,4,-1
 478 353 l 1,5,-1
 247 353 l 1,6,-1
 247 238 l 1,7,-1
 478 238 l 1,4,-1
362 372 m 1,8,-1
 362 487 l 1,9,-1
 247 487 l 1,10,-1
 247 372 l 1,11,-1
 362 372 l 1,8,-1
478 507 m 1,12,-1
 478 622 l 1,13,-1
 362 622 l 2,14,15
 314 622 314 622 282 588 c 0,16,17
 248 554 248 554 247 507 c 1,18,-1
 478 507 l 1,12,-1
0 0 m 1,19,-1
 0 725 l 1,20,-1
 725 725 l 1,21,-1
 725 0 l 1,22,-1
 0 0 l 1,19,-1
EndSplineSet
Validated: 1
EndChar

StartChar: exclam
Encoding: 33 33 4
Width: 202
Flags: W
LayerCount: 2
Fore
SplineSet
43 0 m 5,0,-1
 0 43 l 5,1,-1
 0 85 l 5,2,-1
 43 128 l 5,3,-1
 85 128 l 5,4,-1
 128 85 l 5,5,-1
 128 43 l 5,6,-1
 85 0 l 5,7,-1
 43 0 l 5,0,-1
43 213 m 5,8,-1
 0 384 l 5,9,-1
 0 640 l 5,10,-1
 43 725 l 5,11,-1
 85 725 l 5,12,-1
 128 640 l 5,13,-1
 128 384 l 5,14,-1
 85 213 l 5,15,-1
 43 213 l 5,8,-1
EndSplineSet
Validated: 1
EndChar

StartChar: quotedbl
Encoding: 34 34 5
Width: 373
Flags: W
LayerCount: 2
Fore
SplineSet
43 512 m 1,0,-1
 0 640 l 1,1,-1
 0 683 l 1,2,-1
 43 725 l 1,3,-1
 85 725 l 1,4,-1
 128 683 l 1,5,-1
 128 640 l 1,6,-1
 85 512 l 1,7,-1
 43 512 l 1,0,-1
213 512 m 1,8,-1
 171 640 l 1,9,-1
 171 683 l 1,10,-1
 213 725 l 1,11,-1
 256 725 l 1,12,-1
 299 683 l 1,13,-1
 299 640 l 1,14,-1
 256 512 l 1,15,-1
 213 512 l 1,8,-1
EndSplineSet
Validated: 1
EndChar

StartChar: numbersign
Encoding: 35 35 6
Width: 544
Flags: W
LayerCount: 2
Fore
SplineSet
299 299 m 1,0,-1
 299 469 l 1,1,-1
 171 469 l 1,2,-1
 171 299 l 1,3,-1
 299 299 l 1,0,-1
128 128 m 1,4,-1
 128 256 l 1,5,-1
 0 256 l 1,6,-1
 0 299 l 1,7,-1
 128 299 l 1,8,-1
 128 469 l 1,9,-1
 0 469 l 1,10,-1
 0 512 l 1,11,-1
 128 512 l 1,12,-1
 128 640 l 1,13,-1
 171 640 l 1,14,-1
 171 512 l 1,15,-1
 299 512 l 1,16,-1
 299 640 l 1,17,-1
 341 640 l 1,18,-1
 341 512 l 1,19,-1
 469 512 l 1,20,-1
 469 469 l 1,21,-1
 341 469 l 1,22,-1
 341 299 l 1,23,-1
 469 299 l 1,24,-1
 469 256 l 1,25,-1
 341 256 l 1,26,-1
 341 128 l 1,27,-1
 299 128 l 1,28,-1
 299 256 l 1,29,-1
 171 256 l 1,30,-1
 171 128 l 1,31,-1
 128 128 l 1,4,-1
EndSplineSet
Validated: 1
EndChar

StartChar: dollar
Encoding: 36 36 7
Width: 458
Flags: W
LayerCount: 2
Fore
SplineSet
256 85 m 1,0,-1
 299 106 l 1,1,-1
 319 128 l 1,2,-1
 341 171 l 1,3,-1
 341 213 l 1,4,-1
 299 299 l 1,5,-1
 213 341 l 1,6,-1
 213 85 l 1,7,-1
 256 85 l 1,0,-1
171 427 m 1,8,-1
 171 640 l 1,9,-1
 128 640 l 1,10,-1
 85 618 l 1,11,-1
 63 597 l 1,12,-1
 43 555 l 1,13,-1
 85 469 l 1,14,-1
 171 427 l 1,15,-1
 171 427 l 1,8,-1
171 0 m 1,16,-1
 171 43 l 1,17,-1
 128 43 l 1,18,-1
 43 85 l 1,19,-1
 0 128 l 1,20,-1
 0 171 l 1,21,-1
 43 193 l 1,22,-1
 85 171 l 1,23,-1
 106 128 l 1,24,-1
 128 106 l 1,25,-1
 171 85 l 1,26,-1
 171 341 l 1,27,-1
 128 341 l 1,28,-1
 85 362 l 1,29,-1
 22 427 l 1,30,-1
 0 469 l 1,31,-1
 0 555 l 1,32,-1
 43 640 l 1,33,-1
 128 683 l 1,34,-1
 171 683 l 1,35,-1
 171 725 l 1,36,-1
 213 725 l 1,37,-1
 213 683 l 1,38,-1
 256 683 l 1,39,-1
 341 640 l 1,40,-1
 384 597 l 1,41,-1
 384 555 l 1,42,-1
 341 534 l 1,43,-1
 299 555 l 1,44,-1
 278 597 l 1,45,-1
 256 618 l 1,46,-1
 213 640 l 1,47,-1
 213 427 l 1,48,-1
 256 427 l 1,49,-1
 299 406 l 1,50,-1
 362 341 l 1,51,-1
 384 299 l 1,52,-1
 384 171 l 1,53,-1
 341 85 l 1,54,-1
 256 43 l 1,55,-1
 213 43 l 1,56,-1
 213 0 l 1,57,-1
 171 0 l 1,16,-1
EndSplineSet
Validated: 5
EndChar

StartChar: percent
Encoding: 37 37 8
Width: 501
Flags: W
LayerCount: 2
Fore
SplineSet
299.5 43 m 152,-1,1
 321 47 321 47 329 55 c 256,2,3
 338 64 338 64 341 85 c 24,4,5
 345 107 345 107 341.5 128.5 c 152,-1,6
 338 150 338 150 329 158 c 256,7,8
 320 167 320 167 299 171 c 24,9,10
 277 175 277 175 255.5 171 c 152,-1,11
 234 167 234 167 225 158 c 256,12,13
 216 149 216 149 213 128 c 24,14,15
 209 106 209 106 213 84.5 c 152,-1,16
 217 63 217 63 225 55 c 256,17,18
 234 46 234 46 256 43 c 24,19,0
 278 39 278 39 299.5 43 c 152,-1,1
256 0 m 24,20,21
 239 4 239 4 213 22 c 24,22,23
 201 30 201 30 193 43 c 24,24,25
 176 69 176 69 171 85 c 24,26,27
 166 107 166 107 171 128 c 24,28,29
 176 144 176 144 193 171 c 24,30,31
 201 184 201 184 213 193 c 24,32,33
 238 209 238 209 256 213 c 24,34,35
 278 218 278 218 299 213 c 24,36,37
 316 209 316 209 341 193 c 24,38,39
 353 185 353 185 362 171 c 24,40,41
 379 144 379 144 384 128 c 24,42,43
 389 106 389 106 384 85 c 24,44,45
 380 69 380 69 362 43 c 24,46,47
 354 30 354 30 341 22 c 24,48,49
 315 5 315 5 299 0 c 24,50,51
 278 -5 278 -5 256 0 c 24,20,21
128 555 m 156,-1,53
 150 559 150 559 158 567 c 260,54,55
 167 576 167 576 171 597 c 28,56,57
 175 619 175 619 171 640.5 c 156,-1,58
 167 662 167 662 158 670 c 260,59,60
 149 679 149 679 128 683 c 28,61,62
 106 687 106 687 84.5 683 c 156,-1,63
 63 679 63 679 55 670 c 260,64,65
 46 661 46 661 43 640 c 28,66,67
 39 618 39 618 42.5 596.5 c 156,-1,68
 46 575 46 575 55 567 c 260,69,70
 64 558 64 558 85 555 c 28,71,52
 106 551 106 551 128 555 c 156,-1,53
85 512 m 28,72,73
 68 516 68 516 43 534 c 28,74,75
 30 542 30 542 22 555 c 28,76,77
 5 581 5 581 0 597 c 28,78,79
 -5 619 -5 619 0 640 c 28,80,81
 4 657 4 657 22 683 c 28,82,83
 30 696 30 696 43 705 c 28,84,85
 68 721 68 721 85 725 c 28,86,87
 107 730 107 730 128 725 c 28,88,89
 145 721 145 721 171 705 c 28,90,91
 184 697 184 697 193 683 c 28,92,93
 210 657 210 657 213 640 c 28,94,95
 218 618 218 618 213 597 c 28,96,97
 209 580 209 580 193 555 c 28,98,99
 185 543 185 543 171 534 c 28,100,101
 145 517 145 517 128 512 c 28,102,103
 107 507 107 507 85 512 c 28,72,73
0 0 m 1,104,-1
 362 725 l 1,105,-1
 406 725 l 1,106,-1
 43 0 l 1,107,-1
 0 0 l 1,104,-1
EndSplineSet
Validated: 33
EndChar

StartChar: ampersand
Encoding: 38 38 9
Width: 800
Flags: W
LayerCount: 2
Fore
SplineSet
341 43 m 1,0,-1
 427 85 l 1,1,-1
 469 128 l 1,2,-1
 483 157 l 1,3,-1
 227 413 l 1,4,-1
 171 384 l 1,5,-1
 128 341 l 1,6,-1
 85 256 l 1,7,-1
 85 213 l 1,8,-1
 128 128 l 1,9,-1
 171 85 l 1,10,-1
 256 43 l 1,11,-1
 341 43 l 1,0,-1
285 462 m 1,12,-1
 299 469 l 1,13,-1
 341 512 l 1,14,-1
 362 555 l 1,15,-1
 362 640 l 1,16,-1
 341 662 l 1,17,-1
 299 683 l 1,18,-1
 256 683 l 1,19,-1
 213 662 l 1,20,-1
 193 640 l 1,21,-1
 193 597 l 1,22,-1
 234 512 l 1,23,-1
 285 462 l 1,24,-1
 285 462 l 1,12,-1
213 0 m 1,25,-1
 85 63 l 1,26,-1
 22 128 l 1,27,-1
 0 171 l 1,28,-1
 0 256 l 1,29,-1
 43 341 l 1,30,-1
 85 384 l 1,31,-1
 199 440 l 1,32,-1
 171 469 l 1,33,-1
 128 555 l 1,34,-1
 128 597 l 1,35,-1
 171 683 l 1,36,-1
 256 725 l 1,37,-1
 299 725 l 1,38,-1
 384 683 l 1,39,-1
 427 597 l 1,40,-1
 427 555 l 1,41,-1
 406 512 l 1,42,-1
 341 449 l 1,43,-1
 312 434 l 1,44,-1
 512 234 l 1,45,-1
 520 230 l 1,46,-1
 571 333 l 1,47,-1
 512 362 l 1,48,-1
 512 384 l 1,49,-1
 683 384 l 1,50,-1
 683 362 l 1,51,-1
 640 341 l 1,52,-1
 562 184 l 1,53,-1
 683 63 l 1,54,-1
 725 43 l 1,55,-1
 725 0 l 1,56,-1
 683 0 l 1,57,-1
 597 43 l 1,58,-1
 526 114 l 1,59,-1
 512 85 l 1,60,-1
 469 43 l 1,61,-1
 384 0 l 1,62,-1
 213 0 l 1,25,-1
EndSplineSet
Validated: 5
EndChar

StartChar: quotesingle
Encoding: 39 39 10
Width: 202
Flags: W
LayerCount: 2
Fore
SplineSet
43 512 m 1,0,-1
 0 640 l 1,1,-1
 0 683 l 1,2,-1
 43 725 l 1,3,-1
 85 725 l 1,4,-1
 128 683 l 1,5,-1
 128 640 l 1,6,-1
 85 512 l 1,7,-1
 43 512 l 1,0,-1
EndSplineSet
Validated: 1
EndChar

StartChar: parenleft
Encoding: 40 40 11
Width: 330
Flags: W
LayerCount: 2
Fore
SplineSet
256 -43 m 24,0,-1
 128 22 l 24,1,2
 88 48 88 48 63 85 c 24,3,4
 6 172 6 172 0 213 c 24,5,6
 -23 361 -23 361 0 512 c 24,7,8
 6 553 6 553 63 640 c 24,9,10
 89 678 89 678 128 705 c 24,11,12
 213 762 213 762 256 768 c 24,13,-1
 256 725 l 24,14,-1
 171 683 l 24,15,16
 100 595 100 595 85 512 c 24,17,18
 57 364 57 364 85 213 c 24,19,20
 100 130 100 130 171 43 c 24,21,-1
 256 0 l 24,22,-1
 256 -43 l 24,23,-1
 256 -43 l 24,0,-1
EndSplineSet
Validated: 37
EndChar

StartChar: parenright
Encoding: 41 41 12
Width: 330
Flags: W
LayerCount: 2
Fore
SplineSet
0 -43 m 24,0,-1
 0 0 l 24,1,-1
 85 43 l 24,2,3
 156 131 156 131 171 213 c 24,4,5
 199 363 199 363 171 512 c 24,6,7
 156 595 156 595 85 683 c 24,8,-1
 0 725 l 24,9,-1
 0 768 l 24,10,11
 43 762 43 762 128 705 c 24,12,13
 166 679 166 679 193 640 c 24,14,15
 250 553 250 553 256 512 c 24,16,17
 279 362 279 362 256 213 c 24,18,19
 250 172 250 172 193 85 c 24,20,21
 161 37 161 37 128 22 c 24,22,-1
 0 -43 l 24,23,-1
 0 -43 l 24,0,-1
EndSplineSet
Validated: 37
EndChar

StartChar: asterisk
Encoding: 42 42 13
Width: 373
Flags: W
LayerCount: 2
Fore
SplineSet
128 341 m 1,0,-1
 128 469 l 1,1,-1
 0 406 l 1,2,-1
 0 449 l 1,3,-1
 128 512 l 1,4,-1
 0 575 l 1,5,-1
 0 618 l 1,6,-1
 128 555 l 1,7,-1
 128 683 l 1,8,-1
 171 683 l 1,9,-1
 171 555 l 1,10,-1
 299 618 l 1,11,-1
 299 575 l 1,12,-1
 171 512 l 1,13,-1
 299 449 l 1,14,-1
 299 406 l 1,15,-1
 171 469 l 1,16,-1
 171 341 l 1,17,-1
 128 341 l 1,0,-1
EndSplineSet
Validated: 1
EndChar

StartChar: plus
Encoding: 43 43 14
Width: 458
Flags: W
LayerCount: 2
Fore
SplineSet
171 213 m 5,0,-1
 171 384 l 5,1,-1
 0 384 l 5,2,-1
 0 427 l 5,3,-1
 171 427 l 5,4,-1
 171 597 l 5,5,-1
 213 597 l 5,6,-1
 213 427 l 5,7,-1
 384 427 l 5,8,-1
 384 384 l 5,9,-1
 213 384 l 5,10,-1
 213 213 l 5,11,-1
 171 213 l 5,0,-1
EndSplineSet
Validated: 1
EndChar

StartChar: comma
Encoding: 44 44 15
Width: 202
Flags: W
LayerCount: 2
Fore
SplineSet
43 -85 m 1,0,-1
 43 -43 l 1,1,-1
 71 -29 l 1,2,-1
 85 0 l 1,3,-1
 43 0 l 1,4,-1
 0 43 l 1,5,-1
 0 85 l 1,6,-1
 43 128 l 1,7,-1
 85 128 l 1,8,-1
 128 85 l 1,9,-1
 128 0 l 1,10,-1
 106 -43 l 1,11,-1
 63 -85 l 1,12,-1
 43 -85 l 1,0,-1
EndSplineSet
Validated: 1
EndChar

StartChar: hyphen
Encoding: 45 45 16
Width: 458
Flags: W
LayerCount: 2
Fore
SplineSet
0 384 m 1,0,-1
 0 427 l 1,1,-1
 384 427 l 1,2,-1
 384 384 l 1,3,-1
 0 384 l 1,0,-1
EndSplineSet
Validated: 1
EndChar

StartChar: period
Encoding: 46 46 17
Width: 202
Flags: W
LayerCount: 2
Fore
SplineSet
43 0 m 5,0,-1
 0 43 l 5,1,-1
 0 85 l 5,2,-1
 43 128 l 5,3,-1
 85 128 l 5,4,-1
 128 85 l 5,5,-1
 128 43 l 5,6,-1
 85 0 l 5,7,-1
 43 0 l 5,0,-1
EndSplineSet
Validated: 1
EndChar

StartChar: slash
Encoding: 47 47 18
Width: 501
Flags: W
LayerCount: 2
Fore
SplineSet
0 0 m 1,0,-1
 362 725 l 1,1,-1
 406 725 l 1,2,-1
 43 0 l 1,3,-1
 0 0 l 1,0,-1
EndSplineSet
Validated: 1
EndChar

StartChar: zero
Encoding: 48 48 19
Width: 629
Flags: W
LayerCount: 2
Fore
SplineSet
299 43 m 24,0,1
 369 67 369 67 384 85 c 24,2,3
 450 167 450 167 469 256 c 24,4,5
 493 362 493 362 469 469 c 24,6,7
 450 558 450 558 384 640 c 24,8,9
 369 659 369 659 299 683 c 24,10,11
 277 690 277 690 256 683 c 24,12,13
 186 659 186 659 171 640 c 24,14,15
 105 558 105 558 85 469 c 24,16,17
 61 363 61 363 85 256 c 24,18,19
 104 167 104 167 171 85 c 24,20,21
 186 66 186 66 256 43 c 24,22,23
 277 36 277 36 299 43 c 24,0,1
256 0 m 24,24,25
 182 27 182 27 128 63 c 24,26,27
 90 89 90 89 63 128 c 24,28,29
 8 211 8 211 0 256 c 24,30,31
 -20 362 -20 362 0 469 c 24,32,33
 8 513 8 513 63 597 c 24,34,35
 89 635 89 635 128 662 c 24,36,37
 182 699 182 699 256 725 c 24,38,39
 278 733 278 733 299 725 c 24,40,41
 373 697 373 697 427 662 c 24,42,43
 465 636 465 636 490 597 c 24,44,45
 545 514 545 514 555 469 c 24,46,47
 575 363 575 363 555 256 c 24,48,49
 547 212 547 212 490 128 c 24,50,51
 464 90 464 90 427 63 c 24,52,53
 373 26 373 26 299 0 c 24,54,55
 278 -8 278 -8 256 0 c 24,24,25
EndSplineSet
Validated: 33
EndChar

StartChar: one
Encoding: 49 49 20
Width: 245
Flags: W
LayerCount: 2
Fore
SplineSet
85 0 m 5,0,-1
 85 597 l 5,1,-1
 0 597 l 5,2,-1
 0 618 l 5,3,-1
 85 662 l 5,4,-1
 150 725 l 5,5,-1
 171 725 l 5,6,-1
 171 0 l 5,7,-1
 85 0 l 5,0,-1
EndSplineSet
Validated: 1
EndChar

StartChar: two
Encoding: 50 50 21
Width: 544
Flags: W
LayerCount: 2
Fore
SplineSet
0 0 m 1,0,-1
 0 63 l 1,1,-1
 278 341 l 28,2,3
 318 388 318 388 341 469 c 28,4,5
 352 508 352 508 341 555 c 28,6,7
 333 589 333 589 299 640 c 28,8,9
 273 678 273 678 256 683 c 28,10,11
 193 699 193 699 128 683 c 28,12,-1
 0 618 l 1,13,-1
 0 662 l 1,14,-1
 128 725 l 28,15,16
 185 739 185 739 256 725 c 28,17,18
 286 719 286 719 341 683 c 28,19,20
 367 666 367 666 384 640 c 28,21,22
 418 590 418 590 427 555 c 28,23,24
 437 512 437 512 427 469 c 28,25,26
 414 417 414 417 384 384 c 28,27,-1
 85 85 l 1,28,-1
 384 85 l 1,29,-1
 427 128 l 1,30,-1
 469 128 l 1,31,-1
 406 0 l 1,32,-1
 0 0 l 1,0,-1
EndSplineSet
Validated: 33
EndChar

StartChar: three
Encoding: 51 51 22
Width: 501
Flags: W
LayerCount: 2
Fore
SplineSet
0 0 m 24,0,1
 -7 14 -7 14 22 43 c 24,2,-1
 43 43 l 24,3,4
 119 65 119 65 171 85 c 24,5,6
 224 107 224 107 256 128 c 24,7,8
 282 145 282 145 299 171 c 24,9,10
 328 214 328 214 341 256 c 24,11,12
 348 278 348 278 341 299 c 24,13,14
 323 353 323 353 299 384 c 24,15,16
 289 397 289 397 256 406 c 24,17,18
 230 412 230 412 213 406 c 24,19,-1
 85 341 l 24,20,-1
 85 384 l 24,21,-1
 256 469 l 24,22,23
 299 503 299 503 299 555 c 24,24,25
 299 577 299 577 256 640 c 24,26,27
 231 677 231 677 213 683 c 24,28,29
 172 696 172 696 128 683 c 24,30,-1
 0 618 l 24,31,-1
 0 662 l 24,32,33
 48 702 48 702 128 725 c 24,34,35
 167 736 167 736 213 725 c 24,36,37
 247 717 247 717 299 683 c 24,38,39
 325 666 325 666 341 640 c 24,40,41
 384 577 384 577 384 555 c 24,42,43
 384 538 384 538 341 469 c 24,44,-1
 312 440 l 24,45,-1
 341 427 l 24,46,47
 372 402 372 402 384 384 c 24,48,49
 412 342 412 342 427 299 c 24,50,51
 434 277 434 277 427 256 c 24,52,53
 413 213 413 213 384 171 c 24,54,55
 366 142 366 142 341 128 c 24,56,57
 268 85 268 85 171 43 c 24,58,59
 112 17 112 17 43 0 c 24,60,61
 5 -9 5 -9 0 0 c 24,0,1
EndSplineSet
Validated: 33
EndChar

StartChar: four
Encoding: 52 52 23
Width: 586
Flags: W
LayerCount: 2
Fore
SplineSet
299 299 m 1,0,-1
 299 618 l 1,1,-1
 85 299 l 1,2,-1
 299 299 l 1,0,-1
299 0 m 1,3,-1
 299 234 l 1,4,-1
 0 234 l 1,5,-1
 0 256 l 1,6,-1
 312 725 l 1,7,-1
 384 725 l 1,8,-1
 384 299 l 1,9,-1
 406 299 l 1,10,-1
 449 384 l 1,11,-1
 490 384 l 1,12,-1
 490 341 l 1,13,-1
 449 256 l 1,14,-1
 427 234 l 1,15,-1
 384 234 l 1,16,-1
 384 0 l 1,17,-1
 299 0 l 1,3,-1
EndSplineSet
Validated: 1
EndChar

StartChar: five
Encoding: 53 53 24
Width: 501
Flags: W
LayerCount: 2
Fore
SplineSet
0 0 m 28,0,1
 -7 14 -7 14 22 43 c 28,2,-1
 43 43 l 28,3,4
 119 65 119 65 171 85 c 28,5,6
 224 107 224 107 256 128 c 28,7,8
 282 145 282 145 299 171 c 28,9,10
 328 214 328 214 341 256 c 28,11,12
 348 278 348 278 341 299 c 28,13,14
 327 342 327 342 299 384 c 28,15,16
 274 421 274 421 256 427 c 28,17,18
 224 437 224 437 171 427 c 28,19,-1
 43 384 l 28,20,-1
 -14 384 l 1,21,-1
 99 725 l 1,22,-1
 341 725 l 1,23,-1
 384 768 l 1,24,-1
 427 768 l 1,25,-1
 362 640 l 1,26,-1
 128 640 l 1,27,-1
 59 435 l 1,28,-1
 59 435 l 1,29,-1
 128 469 l 28,30,31
 197 481 197 481 256 469 c 28,32,33
 286 463 286 463 341 427 c 28,34,35
 367 410 367 410 384 384 c 28,36,37
 412 342 412 342 427 299 c 28,38,39
 434 277 434 277 427 256 c 28,40,41
 413 213 413 213 384 171 c 28,42,43
 366 142 366 142 341 128 c 28,44,45
 268 85 268 85 171 43 c 28,46,47
 112 17 112 17 43 0 c 28,48,49
 5 -9 5 -9 0 0 c 28,0,1
EndSplineSet
Validated: 37
EndChar

StartChar: six
Encoding: 54 54 25
Width: 501
Flags: W
LayerCount: 2
Fore
SplineSet
256 43 m 28,0,1
 274 49 274 49 299 85 c 28,2,3
 336 140 336 140 341 171 c 28,4,5
 353 236 353 236 341 299 c 28,6,7
 335 330 335 330 299 384 c 28,8,9
 277 416 277 416 256 427 c 28,10,11
 242 434 242 434 213 427 c 28,12,13
 91 396 91 396 85 384 c 28,14,15
 61 337 61 337 85 171 c 28,16,17
 89 144 89 144 128 85 c 28,18,19
 153 48 153 48 171 43 c 28,20,21
 213 29 213 29 256 43 c 28,0,1
171 0 m 28,22,23
 137 8 137 8 85 43 c 28,24,25
 59 59 59 59 43 85 c 28,26,27
 3 144 3 144 0 171 c 28,28,29
 -19 343 -19 343 0 469 c 28,30,31
 6 510 6 510 63 597 c 28,32,33
 81 625 81 625 128 662 c 28,34,35
 140 672 140 672 171 683 c 28,36,37
 285 726 285 726 299 725 c 28,38,-1
 299 683 l 28,39,-1
 171 640 l 28,40,41
 142 611 142 611 85 469 c 28,42,-1
 85 427 l 28,43,-1
 213 469 l 28,44,45
 238 475 238 475 256 469 c 28,46,47
 298 455 298 455 341 427 c 28,48,49
 367 410 367 410 384 384 c 28,50,51
 421 330 421 330 427 299 c 28,52,53
 439 234 439 234 427 171 c 28,54,55
 421 140 421 140 384 85 c 28,56,57
 368 59 368 59 341 43 c 28,58,59
 290 9 290 9 256 0 c 28,60,61
 214 -10 214 -10 171 0 c 28,22,23
EndSplineSet
Validated: 33
EndChar

StartChar: seven
Encoding: 55 55 26
Width: 544
Flags: W
LayerCount: 2
Fore
SplineSet
63 0 m 1,0,-1
 384 640 l 1,1,-1
 85 640 l 1,2,-1
 85 597 l 1,3,-1
 63 597 l 1,4,-1
 0 725 l 1,5,-1
 455 725 l 1,6,-1
 213 0 l 1,7,-1
 63 0 l 1,0,-1
EndSplineSet
Validated: 1
EndChar

StartChar: eight
Encoding: 56 56 27
Width: 544
Flags: W
LayerCount: 2
Fore
SplineSet
299 43 m 24,0,1
 316 47 316 47 341 85 c 24,2,3
 369 128 369 128 384 171 c 24,4,5
 391 192 391 192 384 213 c 24,6,7
 370 256 370 256 341 299 c 24,8,9
 321 330 321 330 299 341 c 24,10,11
 213 384 213 384 171 384 c 24,12,13
 157 384 157 384 128 341 c 24,14,15
 94 291 94 291 85 256 c 24,16,17
 74 213 74 213 85 171 c 24,18,19
 95 135 95 135 128 85 c 24,20,21
 153 47 153 47 171 43 c 24,22,23
 236 28 236 28 299 43 c 24,0,1
281 433 m 24,24,-1
 341 555 l 24,25,26
 347 573 347 573 341 597 c 24,27,28
 337 613 337 613 319 640 c 24,29,30
 309 654 309 654 299 662 c 24,31,32
 274 679 274 679 256 683 c 24,33,34
 234 688 234 688 213 683 c 24,35,36
 197 679 197 679 171 662 c 24,37,38
 158 653 158 653 150 640 c 24,39,40
 133 615 133 615 128 597 c 24,41,42
 122 573 122 573 128 555 c 24,43,44
 151 487 151 487 171 469 c 24,45,46
 172 468 172 468 256 440 c 24,47,-1
 281 433 l 24,48,-1
 281 433 l 24,24,-1
171 0 m 24,49,50
 141 6 141 6 85 43 c 24,51,52
 60 59 60 59 43 85 c 24,53,54
 9 136 9 136 0 171 c 24,55,56
 -10 215 -10 215 0 256 c 24,57,58
 8 288 8 288 43 341 c 24,59,60
 59 366 59 366 85 384 c 24,61,-1
 142 413 l 24,62,-1
 85 469 l 24,63,64
 59 507 59 507 43 555 c 24,65,66
 36 575 36 575 43 597 c 24,67,68
 65 663 65 663 85 683 c 24,69,70
 116 714 116 714 171 725 c 24,71,72
 236 737 236 737 299 725 c 24,73,74
 352 715 352 715 384 683 c 24,75,76
 405 662 405 662 427 597 c 24,77,78
 434 576 434 576 427 555 c 24,79,80
 413 512 413 512 384 469 c 24,81,82
 376 458 376 458 341 427 c 24,83,-1
 325 418 l 24,84,-1
 341 413 l 24,85,86
 369 397 369 397 384 384 c 24,87,88
 415 359 415 359 427 341 c 24,89,90
 460 292 460 292 469 256 c 24,91,92
 479 213 479 213 469 171 c 24,93,94
 459 134 459 134 427 85 c 24,95,96
 410 60 410 60 384 43 c 24,97,98
 327 6 327 6 299 0 c 24,99,100
 236 -13 236 -13 171 0 c 24,49,50
EndSplineSet
Validated: 37
EndChar

StartChar: nine
Encoding: 57 57 28
Width: 501
Flags: W
LayerCount: 2
Fore
SplineSet
213 299 m 24,0,1
 335 330 335 330 341 341 c 24,2,3
 365 388 365 388 341 555 c 24,4,5
 337 583 337 583 299 640 c 24,6,7
 274 677 274 677 256 683 c 24,8,9
 213 697 213 697 171 683 c 24,10,11
 153 677 153 677 128 640 c 24,12,13
 91 586 91 586 85 555 c 24,14,15
 73 490 73 490 85 427 c 24,16,17
 91 397 91 397 128 341 c 24,18,19
 150 309 150 309 171 299 c 24,20,21
 184 292 184 292 213 299 c 24,0,1
128 0 m 24,22,-1
 128 43 l 24,23,-1
 256 85 l 24,24,25
 285 114 285 114 341 256 c 24,26,27
 358 299 358 299 341 299 c 24,28,-1
 213 256 l 24,29,30
 188 250 188 250 171 256 c 24,31,32
 128 270 128 270 85 299 c 24,33,34
 59 315 59 315 43 341 c 24,35,36
 6 395 6 395 0 427 c 24,37,38
 -12 490 -12 490 0 555 c 24,39,40
 6 586 6 586 43 640 c 24,41,42
 59 666 59 666 85 683 c 24,43,44
 136 718 136 718 171 725 c 24,45,46
 214 735 214 735 256 725 c 24,47,48
 290 717 290 717 341 683 c 24,49,50
 367 666 367 666 384 640 c 24,51,52
 424 581 424 581 427 555 c 24,53,54
 446 383 446 383 427 256 c 24,55,56
 421 215 421 215 362 128 c 24,57,58
 345 100 345 100 299 63 c 24,59,60
 286 53 286 53 256 43 c 24,61,-1
 128 0 l 24,62,-1
 128 0 l 24,22,-1
EndSplineSet
Validated: 37
EndChar

StartChar: colon
Encoding: 58 58 29
Width: 202
Flags: W
LayerCount: 2
Fore
SplineSet
43 85 m 5,0,-1
 0 128 l 5,1,-1
 0 171 l 5,2,-1
 43 213 l 5,3,-1
 85 213 l 5,4,-1
 128 171 l 5,5,-1
 128 128 l 5,6,-1
 85 85 l 5,7,-1
 43 85 l 5,0,-1
43 384 m 5,8,-1
 0 427 l 5,9,-1
 0 469 l 5,10,-1
 43 512 l 5,11,-1
 85 512 l 5,12,-1
 128 469 l 5,13,-1
 128 427 l 5,14,-1
 85 384 l 5,15,-1
 43 384 l 5,8,-1
EndSplineSet
Validated: 1
EndChar

StartChar: semicolon
Encoding: 59 59 30
Width: 202
Flags: W
LayerCount: 2
Fore
SplineSet
43 0 m 1,0,-1
 43 43 l 1,1,-1
 71 56 l 1,2,-1
 85 85 l 1,3,-1
 43 85 l 1,4,-1
 0 128 l 1,5,-1
 0 171 l 1,6,-1
 43 213 l 1,7,-1
 85 213 l 1,8,-1
 128 171 l 1,9,-1
 128 85 l 1,10,-1
 106 43 l 1,11,-1
 63 0 l 1,12,-1
 43 0 l 1,0,-1
43 384 m 1,13,-1
 0 427 l 1,14,-1
 0 469 l 1,15,-1
 43 512 l 1,16,-1
 85 512 l 1,17,-1
 128 469 l 1,18,-1
 128 427 l 1,19,-1
 85 384 l 1,20,-1
 43 384 l 1,13,-1
EndSplineSet
Validated: 1
EndChar

StartChar: less
Encoding: 60 60 31
Width: 416
Flags: W
LayerCount: 2
Fore
SplineSet
341 193 m 5,0,-1
 0 362 l 5,1,-1
 0 406 l 5,2,-1
 341 575 l 5,3,-1
 341 534 l 5,4,-1
 43 384 l 5,5,-1
 341 234 l 5,6,-1
 341 193 l 5,7,-1
 341 193 l 5,0,-1
EndSplineSet
Validated: 5
EndChar

StartChar: equal
Encoding: 61 61 32
Width: 458
Flags: W
LayerCount: 2
Fore
SplineSet
0 299 m 1,0,-1
 0 341 l 1,1,-1
 384 341 l 1,2,-1
 384 299 l 1,3,-1
 0 299 l 1,0,-1
0 427 m 1,4,-1
 0 469 l 1,5,-1
 384 469 l 1,6,-1
 384 427 l 1,7,-1
 0 427 l 1,4,-1
EndSplineSet
Validated: 1
EndChar

StartChar: greater
Encoding: 62 62 33
Width: 416
Flags: W
LayerCount: 2
Fore
SplineSet
0 193 m 1,0,-1
 0 234 l 1,1,-1
 299 384 l 1,2,-1
 0 534 l 1,3,-1
 0 575 l 1,4,-1
 341 406 l 1,5,-1
 341 362 l 1,6,-1
 0 193 l 1,7,-1
 0 193 l 1,0,-1
EndSplineSet
Validated: 5
EndChar

StartChar: question
Encoding: 63 63 34
Width: 586
Flags: W
LayerCount: 2
Fore
SplineSet
234 0 m 5,0,-1
 193 43 l 5,1,-1
 193 85 l 5,2,-1
 234 128 l 5,3,-1
 278 128 l 5,4,-1
 319 85 l 5,5,-1
 319 43 l 5,6,-1
 278 0 l 5,7,-1
 234 0 l 5,0,-1
213 213 m 5,8,-1
 213 256 l 28,9,10
 219 282 219 282 234 299 c 28,11,-1
 362 427 l 28,12,13
 387 458 387 458 406 512 c 28,14,15
 413 534 413 534 406 555 c 28,16,17
 392 598 392 598 362 640 c 28,18,19
 337 678 337 678 319 683 c 28,20,21
 272 696 272 696 213 683 c 28,22,-1
 128 640 l 28,23,-1
 128 640 l 28,24,25
 106 618 l 28,26,-1
 128 597 l 28,27,28
 136 571 136 571 128 555 c 28,29,30
 114 526 114 526 85 512 c 28,31,32
 63 502 63 502 43 512 c 28,33,34
 14 526 14 526 0 555 c 28,35,36
 -12 580 -12 580 0 597 c 28,37,38
 29 639 29 639 85 683 c 28,39,40
 133 720 133 720 171 725 c 28,41,42
 256 739 256 739 341 725 c 28,43,44
 370 720 370 720 427 683 c 28,45,46
 453 666 453 666 469 640 c 28,47,48
 498 598 498 598 512 555 c 28,49,50
 518 537 518 537 512 512 c 28,51,52
 506 485 506 485 490 469 c 28,53,-1
 319 299 l 28,54,-1
 278 213 l 5,55,-1
 213 213 l 5,8,-1
EndSplineSet
Validated: 37
EndChar

StartChar: at
Encoding: 64 64 35
Width: 714
Flags: W
LayerCount: 2
Fore
SplineSet
341 213 m 24,0,-1
 384 234 l 24,1,2
 396 242 396 242 406 256 c 24,3,4
 425 286 425 286 427 299 c 24,5,6
 435 362 435 362 427 427 c 24,7,8
 425 440 425 440 406 469 c 24,9,10
 398 481 398 481 384 490 c 24,11,12
 350 513 350 513 341 512 c 24,13,14
 290 504 290 504 256 469 c 24,15,16
 234 447 234 447 213 384 c 24,17,18
 206 362 206 362 213 341 c 24,19,20
 235 278 235 278 256 256 c 24,21,-1
 341 213 l 24,22,-1
 341 213 l 24,0,-1
256 0 m 24,23,24
 209 10 209 10 128 63 c 24,25,26
 90 89 90 89 63 128 c 24,27,28
 8 211 8 211 0 256 c 24,29,30
 -20 362 -20 362 0 469 c 24,31,32
 8 513 8 513 63 597 c 24,33,34
 89 635 89 635 128 662 c 24,35,36
 205 713 205 713 256 725 c 24,37,38
 319 741 319 741 384 725 c 24,39,40
 435 713 435 713 512 662 c 24,41,42
 549 636 549 636 575 597 c 24,43,44
 630 514 630 514 640 469 c 24,45,46
 652 402 652 402 640 256 c 24,47,48
 639 244 639 244 618 213 c 24,49,50
 610 201 610 201 597 193 c 24,51,52
 568 174 568 174 555 171 c 24,53,54
 512 164 512 164 469 171 c 24,55,-1
 427 193 l 24,56,-1
 384 171 l 24,57,58
 341 164 341 164 299 171 c 24,59,60
 280 174 280 174 256 193 c 24,61,62
 221 222 221 222 193 256 c 24,63,64
 174 280 174 280 171 299 c 24,65,66
 163 364 163 364 171 427 c 24,67,68
 174 446 174 446 193 469 c 24,69,70
 222 505 222 505 256 534 c 24,71,72
 279 551 279 551 299 555 c 24,73,74
 342 562 342 562 384 555 c 24,75,76
 398 553 398 553 427 534 c 24,77,78
 440 526 440 526 449 512 c 24,79,80
 469 481 469 481 469 469 c 24,81,-1
 469 256 l 24,82,83
 472 240 472 240 512 213 c 24,84,85
 524 205 524 205 534 213 c 24,86,87
 553 232 553 232 555 256 c 24,88,89
 568 411 568 411 555 469 c 24,90,91
 536 558 536 558 469 640 c 24,92,93
 444 671 444 671 384 683 c 24,94,95
 321 695 321 695 256 683 c 24,96,97
 195 671 195 671 171 640 c 24,98,99
 105 558 105 558 85 469 c 24,100,101
 61 363 61 363 85 256 c 24,102,103
 104 167 104 167 171 85 c 24,104,105
 198 52 198 52 256 43 c 24,106,107
 341 29 341 29 427 43 c 24,108,109
 468 50 468 50 512 85 c 24,110,-1
 534 128 l 1,111,-1
 597 128 l 1,112,-1
 597 106 l 1,113,-1
 555 63 l 24,114,115
 466 8 466 8 427 0 c 24,116,117
 341 -18 341 -18 256 0 c 24,23,24
EndSplineSet
Validated: 37
EndChar

StartChar: A
Encoding: 65 65 36
Width: 842
Flags: W
LayerCount: 2
Fore
SplineSet
512 213 m 1,0,-1
 352 534 l 1,1,-1
 193 213 l 1,2,-1
 512 213 l 1,0,-1
0 0 m 1,3,-1
 0 22 l 1,4,-1
 43 43 l 1,5,-1
 319 597 l 1,6,-1
 278 683 l 1,7,-1
 299 683 l 1,8,-1
 341 705 l 1,9,-1
 362 725 l 1,10,-1
 696 56 l 1,11,-1
 768 22 l 1,12,-1
 768 0 l 1,13,-1
 512 0 l 1,14,-1
 512 22 l 1,15,-1
 589 59 l 1,16,-1
 534 171 l 1,17,-1
 171 171 l 1,18,-1
 111 51 l 1,19,-1
 171 22 l 1,20,-1
 171 0 l 1,21,-1
 0 0 l 1,3,-1
EndSplineSet
Validated: 1
EndChar

StartChar: B
Encoding: 66 66 37
Width: 629
Flags: W
LayerCount: 2
Fore
SplineSet
384 43 m 24,0,1
 396 43 396 43 427 63 c 24,2,3
 440 71 440 71 449 85 c 24,4,5
 467 114 467 114 469 128 c 24,6,7
 476 171 476 171 469 213 c 24,8,9
 467 227 467 227 449 256 c 24,10,11
 441 268 441 268 427 278 c 24,12,13
 396 298 396 298 384 299 c 24,14,-1
 171 299 l 1,15,-1
 171 43 l 1,16,-1
 384 43 l 24,0,1
341 341 m 24,17,18
 357 344 357 344 384 384 c 24,19,20
 418 435 418 435 427 469 c 24,21,22
 437 512 437 512 427 555 c 24,23,24
 419 589 419 589 384 640 c 24,25,26
 358 679 358 679 341 683 c 24,27,-1
 171 683 l 1,28,-1
 171 341 l 1,29,-1
 341 341 l 24,17,18
0 0 m 1,30,-1
 0 22 l 1,31,-1
 85 63 l 1,32,-1
 85 662 l 1,33,-1
 0 705 l 1,34,-1
 0 725 l 1,35,-1
 341 725 l 24,36,37
 366 723 366 723 427 683 c 24,38,39
 453 666 453 666 469 640 c 24,40,41
 503 590 503 590 512 555 c 24,42,43
 522 512 522 512 512 469 c 24,44,45
 504 435 504 435 469 384 c 24,46,-1
 427 341 l 24,47,-1
 469 319 l 24,48,49
 505 290 505 290 534 256 c 24,50,51
 551 233 551 233 555 213 c 24,52,53
 562 170 562 170 555 128 c 24,54,55
 552 108 552 108 534 85 c 24,56,57
 505 49 505 49 469 22 c 24,58,59
 443 2 443 2 427 0 c 24,60,-1
 0 0 l 1,30,-1
EndSplineSet
Validated: 33
EndChar

StartChar: C
Encoding: 67 67 38
Width: 672
Flags: W
LayerCount: 2
Fore
SplineSet
256 0 m 24,0,1
 205 12 205 12 128 63 c 24,2,3
 90 89 90 89 63 128 c 24,4,5
 8 211 8 211 0 256 c 24,6,7
 -20 362 -20 362 0 469 c 24,8,9
 8 513 8 513 63 597 c 24,10,11
 89 635 89 635 128 662 c 24,12,13
 205 713 205 713 256 725 c 24,14,15
 319 740 319 740 384 725 c 24,16,-1
 503 666 l 24,17,-1
 534 725 l 1,18,-1
 555 725 l 1,19,-1
 555 555 l 1,20,-1
 512 555 l 24,21,-1
 469 640 l 24,22,23
 437 672 437 672 384 683 c 24,24,25
 321 695 321 695 256 683 c 24,26,27
 195 671 195 671 171 640 c 24,28,29
 105 558 105 558 85 469 c 24,30,31
 61 363 61 363 85 256 c 24,32,33
 104 167 104 167 171 85 c 24,34,35
 196 54 196 54 256 43 c 24,36,37
 331 28 331 28 384 43 c 24,38,-1
 555 128 l 1,39,-1
 597 128 l 1,40,-1
 597 106 l 1,41,-1
 384 0 l 24,42,43
 327 -17 327 -17 256 0 c 24,0,1
EndSplineSet
Validated: 33
EndChar

StartChar: D
Encoding: 68 68 39
Width: 672
Flags: W
LayerCount: 2
Fore
SplineSet
341 43 m 28,0,1
 399 52 399 52 427 85 c 28,2,3
 493 167 493 167 512 256 c 28,4,5
 536 362 536 362 512 469 c 28,6,7
 493 558 493 558 427 640 c 28,8,9
 400 673 400 673 341 683 c 28,10,-1
 171 683 l 1,11,-1
 171 43 l 1,12,-1
 341 43 l 28,0,1
0 0 m 1,13,-1
 0 22 l 1,14,-1
 85 63 l 1,15,-1
 85 662 l 1,16,-1
 0 705 l 1,17,-1
 0 725 l 1,18,-1
 341 725 l 28,19,20
 381 720 381 720 469 662 c 28,21,22
 507 636 507 636 534 597 c 28,23,24
 589 514 589 514 597 469 c 28,25,26
 617 363 617 363 597 256 c 28,27,28
 589 212 589 212 534 128 c 28,29,30
 508 90 508 90 469 63 c 28,31,32
 381 5 381 5 341 0 c 28,33,-1
 0 0 l 1,13,-1
EndSplineSet
Validated: 33
EndChar

StartChar: E
Encoding: 69 69 40
Width: 586
Flags: W
LayerCount: 2
Fore
SplineSet
0 0 m 1,0,-1
 0 22 l 1,1,-1
 85 63 l 1,2,-1
 85 662 l 1,3,-1
 0 705 l 1,4,-1
 0 725 l 1,5,-1
 427 725 l 1,6,-1
 469 746 l 1,7,-1
 469 597 l 1,8,-1
 449 597 l 1,9,-1
 427 640 l 1,10,-1
 341 683 l 1,11,-1
 171 683 l 1,12,-1
 171 384 l 1,13,-1
 319 384 l 1,14,-1
 362 469 l 1,15,-1
 384 469 l 1,16,-1
 384 256 l 1,17,-1
 362 256 l 1,18,-1
 319 341 l 1,19,-1
 171 341 l 1,20,-1
 171 43 l 1,21,-1
 384 43 l 1,22,-1
 469 85 l 1,23,-1
 490 128 l 1,24,-1
 512 128 l 1,25,-1
 512 0 l 1,26,-1
 0 0 l 1,0,-1
EndSplineSet
Validated: 1
EndChar

StartChar: F
Encoding: 70 70 41
Width: 544
Flags: W
LayerCount: 2
Fore
SplineSet
0 0 m 1,0,-1
 0 22 l 1,1,-1
 85 63 l 1,2,-1
 85 662 l 1,3,-1
 0 705 l 1,4,-1
 0 725 l 1,5,-1
 427 725 l 1,6,-1
 469 746 l 1,7,-1
 469 597 l 1,8,-1
 449 597 l 1,9,-1
 427 640 l 1,10,-1
 341 683 l 1,11,-1
 171 683 l 1,12,-1
 171 384 l 1,13,-1
 319 384 l 1,14,-1
 362 469 l 1,15,-1
 384 469 l 1,16,-1
 384 256 l 1,17,-1
 362 256 l 1,18,-1
 319 341 l 1,19,-1
 171 341 l 1,20,-1
 171 63 l 1,21,-1
 256 22 l 1,22,-1
 256 0 l 1,23,-1
 0 0 l 1,0,-1
EndSplineSet
Validated: 1
EndChar

StartChar: G
Encoding: 71 71 42
Width: 714
Flags: W
LayerCount: 2
Fore
SplineSet
256 7 m 24,0,1
 198 20 198 20 128 63 c 24,2,3
 90 87 90 87 63 128 c 24,4,5
 8 211 8 211 0 256 c 24,6,7
 -20 362 -20 362 0 469 c 24,8,9
 8 513 8 513 63 597 c 24,10,11
 89 635 89 635 128 662 c 24,12,13
 205 713 205 713 256 725 c 24,14,15
 319 740 319 740 384 725 c 24,16,-1
 503 666 l 24,17,-1
 534 725 l 1,18,-1
 555 725 l 1,19,-1
 555 555 l 1,20,-1
 512 555 l 1,21,-1
 469 640 l 24,22,23
 437 672 437 672 384 683 c 24,24,25
 321 695 321 695 256 683 c 24,26,27
 195 671 195 671 171 640 c 24,28,29
 105 558 105 558 85 469 c 24,30,31
 61 363 61 363 85 256 c 24,32,33
 104 167 104 167 171 85 c 24,34,35
 196 54 196 54 256 43 c 24,36,37
 321 31 321 31 384 43 c 24,38,39
 437 53 437 53 469 85 c 24,40,41
 502 118 502 118 512 171 c 24,42,-1
 512 319 l 1,43,-1
 427 362 l 1,44,-1
 427 384 l 1,45,-1
 597 384 l 1,46,-1
 597 171 l 1,47,-1
 640 150 l 1,48,-1
 640 128 l 1,49,-1
 384 7 l 24,50,51
 331 -9 331 -9 256 7 c 24,0,1
EndSplineSet
Validated: 33
EndChar

StartChar: H
Encoding: 72 72 43
Width: 757
Flags: W
LayerCount: 2
Fore
SplineSet
0 0 m 1,0,-1
 0 22 l 1,1,-1
 85 63 l 1,2,-1
 85 662 l 1,3,-1
 0 705 l 1,4,-1
 0 725 l 1,5,-1
 256 725 l 1,6,-1
 256 705 l 1,7,-1
 171 662 l 1,8,-1
 171 384 l 1,9,-1
 512 384 l 1,10,-1
 512 662 l 1,11,-1
 427 705 l 1,12,-1
 427 725 l 1,13,-1
 683 725 l 1,14,-1
 683 705 l 1,15,-1
 597 662 l 1,16,-1
 597 63 l 1,17,-1
 683 22 l 1,18,-1
 683 0 l 1,19,-1
 427 0 l 1,20,-1
 427 22 l 1,21,-1
 512 63 l 1,22,-1
 512 341 l 1,23,-1
 171 341 l 1,24,-1
 171 63 l 1,25,-1
 256 22 l 1,26,-1
 256 0 l 1,27,-1
 0 0 l 1,0,-1
EndSplineSet
Validated: 1
EndChar

StartChar: I
Encoding: 73 73 44
Width: 330
Flags: W
LayerCount: 2
Fore
SplineSet
0 0 m 1,0,-1
 0 22 l 1,1,-1
 85 63 l 1,2,-1
 85 662 l 1,3,-1
 0 705 l 1,4,-1
 0 725 l 1,5,-1
 256 725 l 1,6,-1
 256 705 l 1,7,-1
 171 662 l 1,8,-1
 171 63 l 1,9,-1
 256 22 l 1,10,-1
 256 0 l 1,11,-1
 0 0 l 1,0,-1
EndSplineSet
Validated: 1
EndChar

StartChar: J
Encoding: 74 74 45
Width: 458
Flags: W
LayerCount: 2
Fore
SplineSet
85 -171 m 24,0,1
 68 -167 68 -167 43 -150 c 24,2,3
 30 -142 30 -142 22 -128 c 24,4,5
 0 -96 0 -96 0 -85 c 24,6,7
 0 -56 0 -56 22 -43 c 24,8,9
 35 -34 35 -34 63 -43 c 24,10,11
 75 -47 75 -47 85 -63 c 24,12,-1
 85 -85 l 24,13,14
 95 -119 95 -119 102 -119 c 24,15,16
 139 -119 139 -119 171 -85 c 24,17,18
 211 -42 211 -42 213 0 c 24,19,-1
 213 662 l 1,20,-1
 128 705 l 1,21,-1
 128 725 l 1,22,-1
 384 725 l 1,23,-1
 384 705 l 1,24,-1
 299 662 l 1,25,-1
 299 43 l 24,26,27
 296 6 296 6 234 -85 c 24,28,29
 216 -113 216 -113 171 -150 c 24,30,31
 152 -165 152 -165 128 -171 c 24,32,33
 107 -176 107 -176 85 -171 c 24,0,1
EndSplineSet
Validated: 33
EndChar

StartChar: K
Encoding: 75 75 46
Width: 714
Flags: W
LayerCount: 2
Fore
SplineSet
0 0 m 1,0,-1
 0 22 l 1,1,-1
 85 63 l 1,2,-1
 85 662 l 1,3,-1
 0 705 l 1,4,-1
 0 725 l 1,5,-1
 256 725 l 1,6,-1
 256 705 l 1,7,-1
 171 662 l 1,8,-1
 171 384 l 1,9,-1
 469 683 l 1,10,-1
 427 705 l 1,11,-1
 427 725 l 1,12,-1
 597 725 l 1,13,-1
 597 705 l 1,14,-1
 512 662 l 1,15,-1
 234 384 l 1,16,-1
 555 63 l 1,17,-1
 640 22 l 1,18,-1
 640 0 l 1,19,-1
 427 0 l 1,20,-1
 427 22 l 1,21,-1
 469 43 l 1,22,-1
 171 341 l 1,23,-1
 171 63 l 1,24,-1
 256 22 l 1,25,-1
 256 0 l 1,26,-1
 0 0 l 1,0,-1
EndSplineSet
Validated: 1
EndChar

StartChar: L
Encoding: 76 76 47
Width: 586
Flags: W
LayerCount: 2
Fore
SplineSet
0 0 m 1,0,-1
 0 22 l 1,1,-1
 85 63 l 1,2,-1
 85 662 l 1,3,-1
 0 705 l 1,4,-1
 0 725 l 1,5,-1
 256 725 l 1,6,-1
 256 705 l 1,7,-1
 171 662 l 1,8,-1
 171 43 l 1,9,-1
 384 43 l 1,10,-1
 469 85 l 1,11,-1
 490 128 l 1,12,-1
 512 128 l 1,13,-1
 512 0 l 1,14,-1
 0 0 l 1,0,-1
EndSplineSet
Validated: 1
EndChar

StartChar: M
Encoding: 77 77 48
Width: 1013
Flags: W
LayerCount: 2
Fore
SplineSet
0 0 m 1,0,-1
 0 22 l 1,1,-1
 85 63 l 1,2,-1
 85 662 l 1,3,-1
 0 705 l 1,4,-1
 0 725 l 1,5,-1
 171 725 l 1,6,-1
 469 128 l 1,7,-1
 768 725 l 1,8,-1
 939 725 l 1,9,-1
 939 705 l 1,10,-1
 853 662 l 1,11,-1
 853 63 l 1,12,-1
 939 22 l 1,13,-1
 939 0 l 1,14,-1
 683 0 l 1,15,-1
 683 22 l 1,16,-1
 768 63 l 1,17,-1
 768 597 l 1,18,-1
 469 0 l 1,19,-1
 427 0 l 1,20,-1
 128 597 l 1,21,-1
 128 63 l 1,22,-1
 213 22 l 1,23,-1
 213 0 l 1,24,-1
 0 0 l 1,0,-1
EndSplineSet
Validated: 1
EndChar

StartChar: N
Encoding: 78 78 49
Width: 757
Flags: W
LayerCount: 2
Fore
SplineSet
0 0 m 1,0,-1
 0 22 l 1,1,-1
 85 63 l 1,2,-1
 85 662 l 1,3,-1
 0 705 l 1,4,-1
 0 725 l 1,5,-1
 184 725 l 1,6,-1
 555 171 l 1,7,-1
 555 662 l 1,8,-1
 469 705 l 1,9,-1
 469 725 l 1,10,-1
 683 725 l 1,11,-1
 683 705 l 1,12,-1
 597 662 l 1,13,-1
 597 0 l 1,14,-1
 555 0 l 1,15,-1
 128 640 l 1,16,-1
 128 63 l 1,17,-1
 213 22 l 1,18,-1
 213 0 l 1,19,-1
 0 0 l 1,0,-1
EndSplineSet
Validated: 1
EndChar

StartChar: O
Encoding: 79 79 50
Width: 714
Flags: W
LayerCount: 2
Fore
SplineSet
384 43 m 28,0,1
 444 55 444 55 469 85 c 28,2,3
 535 167 535 167 555 256 c 28,4,5
 579 362 579 362 555 469 c 28,6,7
 536 558 536 558 469 640 c 28,8,9
 444 671 444 671 384 683 c 28,10,11
 321 695 321 695 256 683 c 28,12,13
 195 671 195 671 171 640 c 28,14,15
 105 558 105 558 85 469 c 28,16,17
 61 363 61 363 85 256 c 28,18,19
 104 167 104 167 171 85 c 28,20,21
 196 54 196 54 256 43 c 28,22,23
 321 31 321 31 384 43 c 28,0,1
256 0 m 28,24,25
 205 12 205 12 128 63 c 28,26,27
 90 89 90 89 63 128 c 28,28,29
 8 211 8 211 0 256 c 28,30,31
 -20 362 -20 362 0 469 c 28,32,33
 8 513 8 513 63 597 c 28,34,35
 89 635 89 635 128 662 c 28,36,37
 205 713 205 713 256 725 c 28,38,39
 319 741 319 741 384 725 c 28,40,41
 435 713 435 713 512 662 c 28,42,43
 549 636 549 636 575 597 c 28,44,45
 630 514 630 514 640 469 c 28,46,47
 660 363 660 363 640 256 c 28,48,49
 631 212 631 212 575 128 c 28,50,51
 549 90 549 90 512 63 c 28,52,53
 435 12 435 12 384 0 c 28,54,55
 319 -16 319 -16 256 0 c 28,24,25
EndSplineSet
Validated: 33
EndChar

StartChar: P
Encoding: 80 80 51
Width: 586
Flags: W
LayerCount: 2
Fore
SplineSet
341 341 m 28,0,1
 357 344 357 344 384 384 c 28,2,3
 418 435 418 435 427 469 c 28,4,5
 437 512 437 512 427 555 c 28,6,7
 419 589 419 589 384 640 c 28,8,9
 358 679 358 679 341 683 c 28,10,-1
 171 683 l 1,11,-1
 171 341 l 1,12,-1
 341 341 l 28,0,1
0 0 m 1,13,-1
 0 22 l 1,14,-1
 85 63 l 1,15,-1
 85 662 l 1,16,-1
 0 705 l 1,17,-1
 0 725 l 1,18,-1
 341 725 l 28,19,20
 366 723 366 723 427 683 c 28,21,22
 453 666 453 666 469 640 c 28,23,24
 503 590 503 590 512 555 c 28,25,26
 522 512 522 512 512 469 c 28,27,28
 504 435 504 435 469 384 c 28,29,30
 453 358 453 358 427 341 c 28,31,32
 370 303 370 303 341 299 c 28,33,-1
 171 299 l 1,34,-1
 171 63 l 1,35,-1
 256 22 l 1,36,-1
 256 0 l 1,37,-1
 0 0 l 1,13,-1
EndSplineSet
Validated: 33
EndChar

StartChar: Q
Encoding: 81 81 52
Width: 714
Flags: W
LayerCount: 2
Fore
SplineSet
384 43 m 24,0,1
 444 55 444 55 469 85 c 24,2,3
 535 167 535 167 555 256 c 24,4,5
 579 362 579 362 555 469 c 24,6,7
 536 558 536 558 469 640 c 24,8,9
 444 671 444 671 384 683 c 24,10,11
 321 695 321 695 256 683 c 24,12,13
 195 671 195 671 171 640 c 24,14,15
 105 558 105 558 85 469 c 24,16,17
 61 363 61 363 85 256 c 24,18,19
 104 167 104 167 171 85 c 24,20,21
 196 54 196 54 256 43 c 24,22,23
 321 31 321 31 384 43 c 24,0,1
469 -128 m 24,24,25
 452 -124 452 -124 427 -106 c 24,26,27
 415 -98 415 -98 406 -85 c 24,28,-1
 384 -43 l 24,29,30
 355 -5 355 -5 341 0 c 24,31,-1
 256 0 l 24,32,33
 198 16 198 16 128 63 c 24,34,35
 90 89 90 89 63 128 c 24,36,37
 8 211 8 211 0 256 c 24,38,39
 -20 362 -20 362 0 469 c 24,40,41
 8 513 8 513 63 597 c 24,42,43
 89 635 89 635 128 662 c 24,44,45
 205 713 205 713 256 725 c 24,46,47
 319 741 319 741 384 725 c 24,48,49
 435 713 435 713 512 662 c 24,50,51
 549 636 549 636 575 597 c 24,52,53
 630 514 630 514 640 469 c 24,54,55
 660 363 660 363 640 256 c 24,56,57
 631 212 631 212 575 128 c 24,58,59
 549 88 549 88 512 63 c 24,60,-1
 384 0 l 24,61,62
 384 -16 384 -16 512 -63 c 24,63,64
 532 -69 532 -69 555 -63 c 24,65,-1
 640 -22 l 1,66,-1
 640 -63 l 1,67,-1
 512 -128 l 24,68,69
 495 -134 495 -134 469 -128 c 24,24,25
EndSplineSet
Validated: 33
EndChar

StartChar: R
Encoding: 82 82 53
Width: 672
Flags: W
LayerCount: 2
Fore
SplineSet
341 341 m 24,0,1
 357 344 357 344 384 384 c 24,2,3
 418 435 418 435 427 469 c 24,4,5
 437 512 437 512 427 555 c 24,6,7
 419 589 419 589 384 640 c 24,8,9
 358 679 358 679 341 683 c 24,10,-1
 171 683 l 1,11,-1
 171 341 l 1,12,-1
 341 341 l 24,0,1
0 0 m 1,13,-1
 0 22 l 1,14,-1
 85 63 l 1,15,-1
 85 662 l 1,16,-1
 0 705 l 1,17,-1
 0 725 l 1,18,-1
 341 725 l 24,19,20
 366 723 366 723 427 683 c 24,21,22
 453 666 453 666 469 640 c 24,23,24
 503 590 503 590 512 555 c 24,25,26
 522 512 522 512 512 469 c 24,27,28
 504 435 504 435 469 384 c 24,29,30
 456 365 456 365 427 341 c 24,31,-1
 392 325 l 1,32,-1
 526 56 l 1,33,-1
 597 22 l 1,34,-1
 597 0 l 1,35,-1
 469 0 l 1,36,-1
 319 299 l 1,37,-1
 171 299 l 1,38,-1
 171 63 l 1,39,-1
 256 22 l 1,40,-1
 256 0 l 1,41,-1
 0 0 l 1,13,-1
EndSplineSet
Validated: 33
EndChar

StartChar: S
Encoding: 83 83 54
Width: 501
Flags: W
LayerCount: 2
Fore
SplineSet
0 0 m 1,0,-1
 0 128 l 1,1,-1
 43 128 l 1,2,-1
 85 85 l 24,3,4
 138 50 138 50 171 43 c 24,5,6
 221 34 221 34 299 43 c 24,7,8
 313 45 313 45 341 63 c 24,9,10
 353 70 353 70 362 85 c 24,11,12
 379 110 379 110 384 128 c 24,13,14
 390 154 390 154 384 171 c 24,15,16
 354 253 354 253 327 285 c 0,17,18
 303 313 303 313 242 327 c 4,19,-1
 150 341 l 0,20,21
 96 355 96 355 85 362 c 0,22,23
 58 381 58 381 22 427 c 24,24,25
 3 451 3 451 0 469 c 24,26,27
 -10 547 -10 547 0 597 c 24,28,29
 11 651 11 651 43 683 c 24,30,31
 74 714 74 714 128 725 c 24,32,33
 193 737 193 737 256 725 c 24,34,-1
 341 683 l 1,35,-1
 362 725 l 1,36,-1
 384 725 l 1,37,-1
 384 597 l 1,38,-1
 341 597 l 1,39,-1
 299 640 l 24,40,41
 247 675 247 675 213 683 c 24,42,43
 178 691 178 691 128 683 c 24,44,45
 114 681 114 681 85 662 c 24,46,47
 71 653 71 653 63 640 c 24,48,49
 47 616 47 616 43 597 c 24,50,51
 37 572 37 572 43 555 c 24,52,53
 63 492 63 492 85 469 c 0,54,55
 101 453 101 453 154 439 c 0,56,-1
 256 427 l 0,57,58
 261 427 261 427 341 384 c 0,59,60
 363 372 363 372 384 341 c 24,61,62
 421 285 421 285 427 256 c 24,63,64
 440 193 440 193 427 128 c 24,65,66
 417 76 417 76 384 43 c 24,67,68
 349 8 349 8 299 0 c 24,69,70
 213 -14 213 -14 128 0 c 24,71,-1
 43 43 l 1,72,-1
 22 0 l 1,73,-1
 0 0 l 1,0,-1
EndSplineSet
Validated: 33
EndChar

StartChar: T
Encoding: 84 84 55
Width: 672
Flags: W
LayerCount: 2
Fore
SplineSet
171 0 m 1,0,-1
 171 22 l 1,1,-1
 256 63 l 1,2,-1
 256 683 l 1,3,-1
 85 683 l 1,4,-1
 43 640 l 1,5,-1
 22 597 l 1,6,-1
 0 597 l 1,7,-1
 0 746 l 1,8,-1
 43 725 l 1,9,-1
 555 725 l 1,10,-1
 597 746 l 1,11,-1
 597 597 l 1,12,-1
 575 597 l 1,13,-1
 555 640 l 1,14,-1
 512 683 l 1,15,-1
 341 683 l 1,16,-1
 341 63 l 1,17,-1
 427 22 l 1,18,-1
 427 0 l 1,19,-1
 171 0 l 1,0,-1
EndSplineSet
Validated: 1
EndChar

StartChar: U
Encoding: 85 85 56
Width: 757
Flags: W
LayerCount: 2
Fore
SplineSet
256 0 m 24,0,1
 227 5 227 5 171 43 c 24,2,3
 145 59 145 59 128 85 c 24,4,5
 87 146 87 146 85 171 c 24,6,-1
 85 662 l 1,7,-1
 0 705 l 1,8,-1
 0 725 l 1,9,-1
 256 725 l 1,10,-1
 256 705 l 1,11,-1
 171 662 l 1,12,-1
 171 171 l 24,13,14
 172 155 172 155 193 128 c 24,15,16
 222 92 222 92 256 63 c 24,17,18
 280 44 280 44 299 43 c 24,19,20
 364 35 364 35 427 43 c 24,21,22
 446 45 446 45 469 63 c 24,23,24
 505 92 505 92 534 128 c 24,25,26
 554 154 554 154 555 171 c 24,27,-1
 555 662 l 1,28,-1
 469 705 l 1,29,-1
 469 725 l 1,30,-1
 683 725 l 1,31,-1
 683 705 l 1,32,-1
 597 662 l 1,33,-1
 597 171 l 24,34,35
 595 147 595 147 555 85 c 24,36,37
 538 59 538 59 512 43 c 24,38,39
 456 5 456 5 427 0 c 24,40,41
 341 -14 341 -14 256 0 c 24,0,1
EndSplineSet
Validated: 33
EndChar

StartChar: V
Encoding: 86 86 57
Width: 885
Flags: W
LayerCount: 2
Fore
SplineSet
406 0 m 1,0,-1
 71 669 l 1,1,-1
 0 705 l 1,2,-1
 0 725 l 1,3,-1
 256 725 l 1,4,-1
 256 705 l 1,5,-1
 179 666 l 1,6,-1
 437 150 l 1,7,-1
 699 674 l 1,8,-1
 640 705 l 1,9,-1
 640 725 l 1,10,-1
 811 725 l 1,11,-1
 811 705 l 1,12,-1
 768 683 l 1,13,-1
 427 0 l 1,14,-1
 406 0 l 1,0,-1
EndSplineSet
Validated: 1
EndChar

StartChar: W
Encoding: 87 87 58
Width: 1056
Flags: W
LayerCount: 2
Fore
SplineSet
519 534 m 1,0,-1
 566 677 l 1,1,-1
 512 705 l 1,2,-1
 469 683 l 1,3,-1
 512 555 l 1,4,-1
 512 554 l 1,5,-1
 519 534 l 1,6,-1
 519 534 l 1,0,-1
299 0 m 1,7,-1
 77 666 l 1,8,-1
 0 705 l 1,9,-1
 0 725 l 1,10,-1
 213 725 l 1,11,-1
 213 705 l 1,12,-1
 171 683 l 1,13,-1
 355 128 l 1,14,-1
 370 85 l 1,15,-1
 469 384 l 1,16,-1
 375 666 l 1,17,-1
 299 705 l 1,18,-1
 299 725 l 1,19,-1
 683 725 l 1,20,-1
 683 705 l 1,21,-1
 606 666 l 1,22,-1
 541 469 l 1,23,-1
 654 128 l 1,24,-1
 669 85 l 1,25,-1
 865 677 l 1,26,-1
 811 705 l 1,27,-1
 811 725 l 1,28,-1
 981 725 l 1,29,-1
 981 705 l 1,30,-1
 904 666 l 1,31,-1
 683 0 l 1,32,-1
 597 0 l 1,33,-1
 498 299 l 1,34,-1
 498 299 l 1,35,-1
 490 319 l 1,36,-1
 384 0 l 1,37,-1
 299 0 l 1,7,-1
EndSplineSet
Validated: 5
EndChar

StartChar: X
Encoding: 88 88 59
Width: 757
Flags: W
LayerCount: 2
Fore
SplineSet
31 0 m 5,0,-1
 31 22 l 5,1,-1
 71 43 l 1,2,-1
 71 43 l 1,3,-1
 270 341 l 1,4,-1
 285 362 l 1,5,-1
 270 384 l 1,6,-1
 85 662 l 1,7,-1
 0 705 l 1,8,-1
 0 725 l 1,9,-1
 256 725 l 1,10,-1
 256 705 l 1,11,-1
 193 672 l 1,12,-1
 355 427 l 1,13,-1
 370 406 l 1,14,-1
 555 683 l 1,15,-1
 512 705 l 1,16,-1
 512 725 l 1,17,-1
 649 725 l 1,18,-1
 649 705 l 1,19,-1
 611 683 l 1,20,-1
 413 384 l 1,21,-1
 398 362 l 1,22,-1
 413 341 l 1,23,-1
 597 63 l 1,24,-1
 683 22 l 1,25,-1
 683 0 l 1,26,-1
 427 0 l 1,27,-1
 427 22 l 1,28,-1
 490 53 l 1,29,-1
 327 299 l 1,30,-1
 312 319 l 1,31,-1
 128 43 l 1,32,-1
 171 22 l 1,33,-1
 171 0 l 1,34,-1
 31 0 l 5,0,-1
EndSplineSet
Validated: 5
EndChar

StartChar: Y
Encoding: 89 89 60
Width: 714
Flags: W
LayerCount: 2
Fore
SplineSet
213 0 m 1,0,-1
 213 22 l 1,1,-1
 299 63 l 1,2,-1
 299 341 l 1,3,-1
 85 662 l 1,4,-1
 0 705 l 1,5,-1
 0 725 l 1,6,-1
 256 725 l 1,7,-1
 256 705 l 1,8,-1
 193 672 l 1,9,-1
 355 427 l 1,10,-1
 370 406 l 1,11,-1
 555 683 l 1,12,-1
 512 705 l 1,13,-1
 512 725 l 1,14,-1
 640 725 l 1,15,-1
 640 705 l 1,16,-1
 618 693 l 1,17,-1
 611 683 l 1,18,-1
 413 384 l 1,19,-1
 384 341 l 1,20,-1
 384 63 l 1,21,-1
 469 22 l 1,22,-1
 469 0 l 1,23,-1
 213 0 l 1,0,-1
EndSplineSet
Validated: 1
EndChar

StartChar: Z
Encoding: 90 90 61
Width: 714
Flags: W
LayerCount: 2
Fore
SplineSet
0 0 m 1,0,-1
 449 672 l 1,1,-1
 427 683 l 1,2,-1
 106 683 l 1,3,-1
 63 640 l 1,4,-1
 43 640 l 1,5,-1
 43 725 l 1,6,-1
 597 725 l 1,7,-1
 150 53 l 1,8,-1
 171 43 l 1,9,-1
 512 43 l 1,10,-1
 597 85 l 1,11,-1
 618 128 l 1,12,-1
 640 128 l 1,13,-1
 640 0 l 1,14,-1
 0 0 l 1,0,-1
EndSplineSet
Validated: 1
EndChar

StartChar: bracketleft
Encoding: 91 91 62
Width: 330
Flags: W
LayerCount: 2
Fore
SplineSet
0 -43 m 1,0,-1
 0 768 l 1,1,-1
 256 768 l 1,2,-1
 256 725 l 1,3,-1
 43 725 l 1,4,-1
 43 0 l 1,5,-1
 256 0 l 1,6,-1
 256 -43 l 1,7,-1
 0 -43 l 1,0,-1
EndSplineSet
Validated: 1
EndChar

StartChar: backslash
Encoding: 92 92 63
Width: 501
Flags: W
LayerCount: 2
Fore
SplineSet
384 0 m 1,0,-1
 22 725 l 1,1,-1
 63 725 l 1,2,-1
 427 0 l 1,3,-1
 384 0 l 1,0,-1
EndSplineSet
Validated: 1
EndChar

StartChar: bracketright
Encoding: 93 93 64
Width: 330
Flags: W
LayerCount: 2
Fore
SplineSet
0 -43 m 1,0,-1
 0 0 l 1,1,-1
 213 0 l 5,2,-1
 213 725 l 1,3,-1
 0 725 l 1,4,-1
 0 768 l 1,5,-1
 256 768 l 1,6,-1
 256 -43 l 5,7,-1
 0 -43 l 1,0,-1
EndSplineSet
Validated: 1
EndChar

StartChar: asciicircum
Encoding: 94 94 65
Width: 501
Flags: W
LayerCount: 2
Fore
SplineSet
0 449 m 1,0,-1
 0 512 l 1,1,-1
 213 725 l 1,2,-1
 427 512 l 1,3,-1
 427 449 l 1,4,-1
 213 662 l 1,5,-1
 0 449 l 1,6,-1
 0 449 l 1,0,-1
EndSplineSet
Validated: 5
EndChar

StartChar: underscore
Encoding: 95 95 66
Width: 458
Flags: W
LayerCount: 2
Fore
SplineSet
0 -43 m 1,0,-1
 0 0 l 1,1,-1
 384 0 l 1,2,-1
 384 -43 l 1,3,-1
 0 -43 l 1,0,-1
EndSplineSet
Validated: 1
EndChar

StartChar: grave
Encoding: 96 96 67
Width: 330
Flags: W
LayerCount: 2
Fore
SplineSet
213 469 m 1,0,-1
 0 575 l 1,1,-1
 0 618 l 1,2,-1
 43 640 l 1,3,-1
 85 611 l 1,4,-1
 256 498 l 1,5,-1
 256 469 l 1,6,-1
 213 469 l 1,0,-1
EndSplineSet
Validated: 1
EndChar

StartChar: a
Encoding: 97 97 68
Width: 458
Flags: W
LayerCount: 2
Fore
SplineSet
213 43 m 28,0,1
 229 45 229 45 242 56 c 28,2,3
 254 68 254 68 256 85 c 28,4,-1
 256 213 l 5,5,-1
 128 213 l 28,6,7
 113 212 113 212 99 199 c 28,8,9
 87 187 87 187 85 171 c 28,10,11
 80 128 80 128 85 85 c 28,12,13
 87 69 87 69 99.5 56.5 c 156,-1,14
 112 44 112 44 128 43 c 28,15,16
 170 38 170 38 213 43 c 28,0,1
128 0 m 4,17,18
 101 4 101 4 43 43 c 28,19,20
 6 68 6 68 0 85 c 28,21,22
 -14 128 -14 128 0 171 c 28,23,24
 6 189 6 189 43 213 c 28,25,26
 97 250 97 250 128 256 c 28,27,-1
 256 256 l 5,28,-1
 256 341 l 28,29,30
 254 357 254 357 242 370 c 28,31,32
 231 381 231 381 213 384 c 28,33,34
 164 391 164 391 150 384 c 28,35,-1
 128 341 l 28,36,37
 106 319 106 319 85 319 c 28,38,39
 56 319 56 319 43 341 c 28,40,41
 26 367 26 367 43 384 c 28,42,43
 72 413 72 413 128 427 c 28,44,45
 171 437 171 437 213 427 c 28,46,47
 247 419 247 419 299 384 c 28,48,49
 340 357 340 357 341 341 c 28,50,-1
 341 85 l 5,51,-1
 355 56 l 5,52,-1
 384 43 l 5,53,-1
 427 63 l 5,54,-1
 427 22 l 5,55,-1
 384 0 l 5,56,-1
 341 0 l 5,57,-1
 299 22 l 5,58,-1
 278 43 l 5,59,-1
 270 56 l 5,60,-1
 213 0 l 28,61,62
 177 -6 177 -6 128 0 c 4,17,18
EndSplineSet
Validated: 33
EndChar

StartChar: b
Encoding: 98 98 69
Width: 586
Flags: W
LayerCount: 2
Fore
SplineSet
341 43 m 24,0,1
 358 47 358 47 384 63 c 24,2,3
 397 71 397 71 406 85 c 24,4,5
 426 115 426 115 427 128 c 24,6,7
 435 213 435 213 427 299 c 24,8,9
 426 311 426 311 406 341 c 24,10,11
 398 353 398 353 384 362 c 24,12,13
 358 379 358 379 341 384 c 24,14,15
 315 390 315 390 299 384 c 24,16,17
 171 336 171 336 171 319 c 0,18,19
 173 214 173 214 171 106 c 24,20,21
 171 90 171 90 299 43 c 24,22,23
 315 37 315 37 341 43 c 24,0,1
85 0 m 1,24,-1
 85 662 l 1,25,-1
 0 705 l 1,26,-1
 0 725 l 1,27,-1
 171 725 l 1,28,-1
 171 362 l 24,29,30
 161 385 161 385 299 427 c 24,31,32
 338 438 338 438 384 427 c 24,33,34
 441 413 441 413 469 384 c 24,35,36
 503 350 503 350 512 299 c 24,37,38
 526 214 526 214 512 128 c 24,39,40
 504 77 504 77 469 43 c 24,41,42
 440 14 440 14 384 0 c 24,43,44
 337 -11 337 -11 299 0 c 24,45,-1
 171 63 l 24,46,-1
 106 0 l 1,47,-1
 85 0 l 1,24,-1
EndSplineSet
Validated: 37
EndChar

StartChar: c
Encoding: 99 99 70
Width: 501
Flags: W
LayerCount: 2
Fore
SplineSet
171 0 m 28,0,1
 140 6 140 6 85 43 c 28,2,3
 59 59 59 59 43 85 c 28,4,5
 9 136 9 136 0 171 c 28,6,7
 -10 214 -10 214 0 256 c 28,8,9
 8 290 8 290 43 341 c 28,10,11
 59 367 59 367 85 384 c 28,12,13
 139 421 139 421 171 427 c 28,14,15
 234 439 234 439 299 427 c 28,16,17
 352 416 352 416 384 384 c 28,18,19
 401 367 401 367 384 341 c 28,20,21
 370 319 370 319 341 319 c 28,22,23
 319 319 319 319 299 341 c 28,24,-1
 278 384 l 28,25,26
 229 400 229 400 171 384 c 28,27,28
 154 379 154 379 128 341 c 28,29,30
 93 290 93 290 85 256 c 28,31,32
 75 213 75 213 85 171 c 28,33,34
 93 137 93 137 128 85 c 28,35,36
 154 46 154 46 171 43 c 28,37,38
 234 27 234 27 299 43 c 28,39,-1
 427 106 l 1,40,-1
 427 63 l 1,41,-1
 299 0 l 28,42,43
 243 -14 243 -14 171 0 c 28,0,1
EndSplineSet
Validated: 33
EndChar

StartChar: d
Encoding: 100 100 71
Width: 586
Flags: W
LayerCount: 2
Fore
SplineSet
213 43 m 24,0,-1
 341 106 l 1,1,-1
 341 319 l 1,2,-1
 213 384 l 24,3,4
 196 390 196 390 171 384 c 24,5,6
 155 380 155 380 128 362 c 24,7,8
 115 354 115 354 106 341 c 24,9,10
 86 311 86 311 85 299 c 24,11,12
 77 214 77 214 85 128 c 24,13,14
 86 115 86 115 106 85 c 24,15,16
 114 72 114 72 128 63 c 24,17,18
 155 46 155 46 171 43 c 24,19,20
 196 37 196 37 213 43 c 24,0,-1
128 0 m 24,21,22
 71 14 71 14 43 43 c 24,23,24
 9 77 9 77 0 128 c 24,25,26
 -14 213 -14 213 0 299 c 24,27,28
 8 350 8 350 43 384 c 24,29,30
 72 413 72 413 128 427 c 24,31,32
 174 438 174 438 213 427 c 24,33,-1
 341 362 l 1,34,-1
 341 662 l 1,35,-1
 256 705 l 1,36,-1
 256 725 l 1,37,-1
 427 725 l 1,38,-1
 427 63 l 1,39,-1
 512 22 l 1,40,-1
 512 0 l 1,41,-1
 341 0 l 1,42,-1
 341 63 l 1,43,-1
 213 0 l 24,44,45
 174 -11 174 -11 128 0 c 24,21,22
EndSplineSet
Validated: 33
EndChar

StartChar: e
Encoding: 101 101 72
Width: 501
Flags: W
LayerCount: 2
Fore
SplineSet
341 256 m 5,0,-1
 315 326 l 28,1,2
 283 374 283 374 256 384 c 4,3,4
 214 400 214 400 171 384 c 4,5,6
 145 375 145 375 114 328 c 28,7,-1
 85 256 l 5,8,-1
 341 256 l 5,0,-1
171 0 m 28,9,10
 140 6 140 6 85 43 c 28,11,12
 59 59 59 59 43 85 c 28,13,14
 9 136 9 136 0 171 c 28,15,16
 -10 214 -10 214 0 256 c 28,17,18
 8 290 8 290 43 341 c 28,19,20
 59 367 59 367 85 384 c 28,21,22
 136 418 136 418 171 427 c 28,23,24
 214 437 214 437 256 427 c 28,25,26
 290 419 290 419 341 384 c 28,27,28
 367 368 367 368 384 341 c 28,29,30
 413 298 413 298 427 256 c 28,31,-1
 427 213 l 5,32,-1
 85 213 l 5,33,-1
 85 171 l 28,34,35
 99 129 99 129 128 85 c 28,36,37
 154 46 154 46 171 43 c 28,38,39
 234 27 234 27 299 43 c 28,40,-1
 427 106 l 5,41,-1
 427 63 l 5,42,-1
 299 0 l 28,43,44
 243 -14 243 -14 171 0 c 28,9,10
EndSplineSet
Validated: 33
EndChar

StartChar: f
Encoding: 102 102 73
Width: 416
Flags: W
HStem: 0 5G<0 256> 384 43<0 85 171 341> 618 106<214 298>
VStem: 85 85<63 384 427 604> 213 85<624 662>
LayerCount: 2
Fore
SplineSet
0 0 m 1,0,-1
 0 22 l 1,1,-1
 85 63 l 1,2,-1
 85 384 l 1,3,-1
 0 384 l 1,4,-1
 0 427 l 1,5,-1
 85 427 l 1,6,-1
 85 555 l 24,7,8
 92 583 92 583 150 683 c 24,9,10
 157 696 157 696 171 705 c 24,11,12
 196 721 196 721 213 725 c 24,13,14
 235 730 235 730 256 725 c 24,15,16
 293 717 293 717 299 705 c 24,17,18
 315 673 315 673 299 640 c 24,19,20
 289 618 289 618 256 618 c 24,21,22
 234 618 234 618 213 640 c 24,23,-1
 213 662 l 24,24,25
 207 662 207 662 193 640 c 24,26,27
 173 609 173 609 171 597 c 24,28,-1
 171 427 l 1,29,-1
 341 427 l 1,30,-1
 341 384 l 1,31,-1
 171 384 l 1,32,-1
 171 63 l 1,33,-1
 256 22 l 1,34,-1
 256 0 l 1,35,-1
 0 0 l 1,0,-1
EndSplineSet
Validated: 33
EndChar

StartChar: g
Encoding: 103 103 74
Width: 544
Flags: W
LayerCount: 2
Fore
SplineSet
256 128 m 24,0,1
 270 130 270 130 299 150 c 24,2,3
 311 158 311 158 319 171 c 24,4,5
 337 200 337 200 341 213 c 24,6,7
 348 256 348 256 341 299 c 24,8,9
 338 313 338 313 319 341 c 24,10,11
 311 353 311 353 299 362 c 24,12,13
 270 381 270 381 256 384 c 24,14,15
 213 391 213 391 171 384 c 24,16,17
 158 382 158 382 128 362 c 24,18,19
 115 354 115 354 106 341 c 24,20,21
 88 312 88 312 85 299 c 24,22,23
 78 256 78 256 85 213 c 24,24,25
 87 199 87 199 106 171 c 24,26,27
 114 159 114 159 128 150 c 24,28,29
 157 132 157 132 171 128 c 24,30,31
 213 121 213 121 256 128 c 24,0,1
85 -299 m 24,32,33
 73 -298 73 -298 43 -278 c 24,34,35
 30 -270 30 -270 22 -256 c 24,36,37
 4 -228 4 -228 0 -213 c 24,38,39
 -9 -167 -9 -167 0 -150 c 24,40,41
 4 -142 4 -142 43 -128 c 24,42,43
 55 -124 55 -124 63 -128 c 24,44,45
 81 -137 81 -137 85 -150 c 24,46,-1
 85 -213 l 24,47,48
 93 -252 93 -252 106 -256 c 24,49,50
 152 -267 152 -267 256 -256 c 24,51,52
 268 -255 268 -255 299 -234 c 24,53,54
 311 -226 311 -226 319 -213 c 24,55,56
 337 -184 337 -184 341 -171 c 24,57,58
 348 -128 348 -128 341 -85 c 24,59,60
 338 -71 338 -71 319 -43 c 24,61,62
 306 -23 306 -23 299 -22 c 24,63,64
 217 -11 217 -11 171 -22 c 24,65,-1
 43 -85 l 24,66,-1
 0 -85 l 24,67,-1
 94 102 l 24,68,-1
 85 106 l 24,69,70
 33 155 33 155 22 171 c 24,71,72
 5 194 5 194 0 213 c 24,73,74
 -7 256 -7 256 0 299 c 24,75,76
 3 319 3 319 22 341 c 24,77,78
 51 377 51 377 85 406 c 24,79,80
 110 425 110 425 128 427 c 24,81,82
 213 435 213 435 299 427 c 24,83,-1
 341 406 l 24,84,-1
 384 449 l 24,85,86
 401 457 401 457 427 449 c 24,87,88
 440 445 440 445 449 427 c 24,89,90
 455 416 455 416 449 406 c 24,91,92
 441 389 441 389 427 384 c 24,93,-1
 384 384 l 24,94,95
 370 381 370 381 374 374 c 24,96,-1
 406 341 l 24,97,98
 424 315 424 315 427 299 c 24,99,100
 434 256 434 256 427 213 c 24,101,102
 424 193 424 193 406 171 c 24,103,104
 377 135 377 135 341 106 c 24,105,106
 316 87 316 87 299 85 c 24,107,-1
 128 85 l 0,108,109
 102 33 102 33 71 -29 c 24,110,-1
 171 22 l 24,111,112
 232 35 232 35 299 22 c 24,113,114
 321 18 321 18 384 -22 c 24,115,116
 396 -29 396 -29 406 -43 c 24,117,118
 424 -72 424 -72 427 -85 c 24,119,120
 434 -128 434 -128 427 -171 c 24,121,122
 424 -191 424 -191 406 -213 c 24,123,124
 377 -249 377 -249 341 -278 c 24,125,126
 316 -297 316 -297 299 -299 c 24,127,128
 191 -308 191 -308 85 -299 c 24,32,33
EndSplineSet
Validated: 33
EndChar

StartChar: h
Encoding: 104 104 75
Width: 672
Flags: W
LayerCount: 2
Fore
SplineSet
0 0 m 1,0,-1
 0 22 l 1,1,-1
 85 63 l 1,2,-1
 85 662 l 1,3,-1
 0 705 l 1,4,-1
 0 725 l 1,5,-1
 171 725 l 1,6,-1
 171 362 l 1,7,-1
 299 427 l 1,8,-1
 384 427 l 1,9,-1
 469 384 l 1,10,-1
 512 299 l 1,11,-1
 512 63 l 1,12,-1
 597 22 l 1,13,-1
 597 0 l 1,14,-1
 341 0 l 1,15,-1
 341 22 l 1,16,-1
 427 63 l 1,17,-1
 427 299 l 1,18,-1
 406 341 l 1,19,-1
 384 362 l 1,20,-1
 341 384 l 1,21,-1
 299 384 l 1,22,-1
 171 319 l 1,23,-1
 171 63 l 1,24,-1
 256 22 l 1,25,-1
 256 0 l 1,26,-1
 0 0 l 1,0,-1
EndSplineSet
Validated: 1
EndChar

StartChar: i
Encoding: 105 105 76
Width: 330
Flags: W
HStem: 0 5G<0 256> 422 5G<0 171> 555 85<98 158>
VStem: 85 85<63 362 567 635>
LayerCount: 2
Fore
SplineSet
0 0 m 5,0,-1
 0 22 l 5,1,-1
 85 63 l 5,2,-1
 85 362 l 5,3,-1
 0 406 l 5,4,-1
 0 427 l 5,5,-1
 171 427 l 5,6,-1
 171 63 l 5,7,-1
 256 22 l 5,8,-1
 256 0 l 5,9,-1
 0 0 l 5,0,-1
128 555 m 152,-1,11
 111 555 111 555 97 567 c 256,12,13
 85 579 85 579 85 597 c 256,14,15
 85 614 85 614 97 628 c 0,16,17
 109 640 109 640 128 640 c 0,18,19
 145 640 145 640 157.5 627.5 c 128,-1,20
 170 615 170 615 171 597 c 0,21,22
 171 580 171 580 158 567 c 256,23,10
 145 555 145 555 128 555 c 152,-1,11
EndSplineSet
Validated: 1
EndChar

StartChar: j
Encoding: 106 106 77
Width: 288
Flags: W
LayerCount: 2
Fore
SplineSet
43 -171 m 24,0,1
 6 -162 6 -162 0 -150 c 24,2,3
 -16 -118 -16 -118 0 -85 c 24,4,5
 10 -63 10 -63 43 -63 c 24,6,7
 65 -63 65 -63 85 -85 c 24,8,-1
 85 -106 l 24,9,10
 92 -106 92 -106 106 -85 c 24,11,12
 128 -53 128 -53 128 -43 c 24,13,-1
 128 362 l 1,14,-1
 43 406 l 1,15,-1
 43 427 l 1,16,-1
 213 427 l 1,17,-1
 213 0 l 24,18,19
 211 -19 211 -19 150 -128 c 24,20,21
 144 -139 144 -139 128 -150 c 24,22,23
 102 -167 102 -167 85 -171 c 24,24,25
 65 -176 65 -176 43 -171 c 24,0,1
171 555 m 28,26,27
 154 555 154 555 140 567 c 4,28,29
 128 579 128 579 128 597 c 260,30,31
 128 614 128 614 140 628 c 4,32,33
 152 640 152 640 171 640 c 4,34,35
 188 640 188 640 201 628 c 4,36,37
 213 616 213 616 213 597 c 4,38,39
 213 580 213 580 201 567 c 260,40,41
 189 555 189 555 171 555 c 28,42,-1
 171 555 l 28,26,27
EndSplineSet
Validated: 37
EndChar

StartChar: k
Encoding: 107 107 78
Width: 586
Flags: W
HStem: 0 5G<0 256 299 490> 422 5G<299 427> 720 5G<0 171>
VStem: 85 85<63 213 234 662>
DStem2: 171 234 246 246 0.707107 0.707107<60.4578 221.324> 246 246 171 213 0.707107 -0.707107<0 211.248>
LayerCount: 2
Fore
SplineSet
0 0 m 1,0,-1
 0 22 l 1,1,-1
 85 63 l 1,2,-1
 85 662 l 1,3,-1
 0 705 l 1,4,-1
 0 725 l 1,5,-1
 171 725 l 1,6,-1
 171 234 l 1,7,-1
 327 391 l 1,8,-1
 299 406 l 1,9,-1
 299 427 l 1,10,-1
 427 427 l 1,11,-1
 427 406 l 1,12,-1
 384 384 l 1,13,-1
 246 246 l 1,14,-1
 449 43 l 1,15,-1
 490 22 l 1,16,-1
 490 0 l 1,17,-1
 299 0 l 1,18,-1
 299 22 l 1,19,-1
 341 43 l 1,20,-1
 171 213 l 1,21,-1
 171 63 l 1,22,-1
 256 22 l 1,23,-1
 256 0 l 1,24,-1
 0 0 l 1,0,-1
EndSplineSet
Validated: 1
EndChar

StartChar: l
Encoding: 108 108 79
Width: 330
Flags: W
HStem: 0 5G<0 256> 720 5G<0 171>
VStem: 85 85<63 662>
LayerCount: 2
Fore
SplineSet
0 0 m 1,0,-1
 0 22 l 1,1,-1
 85 63 l 1,2,-1
 85 662 l 1,3,-1
 0 705 l 1,4,-1
 0 725 l 1,5,-1
 171 725 l 1,6,-1
 171 63 l 1,7,-1
 256 22 l 1,8,-1
 256 0 l 1,9,-1
 0 0 l 1,0,-1
EndSplineSet
Validated: 1
EndChar

StartChar: m
Encoding: 109 109 80
Width: 928
Flags: W
HStem: 0 5G<0 256 299 555 597 853> 422 5G<0 171>
VStem: 85 85<63 359> 384 85<63 342> 683 85<63 342>
LayerCount: 2
Fore
SplineSet
0 0 m 1,0,-1
 0 22 l 1,1,-1
 85 63 l 1,2,-1
 85 362 l 1,3,-1
 0 406 l 1,4,-1
 0 427 l 1,5,-1
 171 427 l 1,6,-1
 171 384 l 24,7,-1
 256 427 l 24,8,9
 299 437 299 437 341 427 c 24,10,11
 342 427 342 427 427 384 c 24,12,-1
 427 384 l 24,13,14
 449 362 l 24,15,-1
 469 384 l 24,16,17
 529 421 529 421 555 427 c 24,18,19
 598 437 598 437 640 427 c 24,20,21
 697 413 697 413 725 384 c 24,22,23
 761 348 761 348 768 299 c 24,24,-1
 768 63 l 1,25,-1
 853 22 l 1,26,-1
 853 0 l 1,27,-1
 597 0 l 1,28,-1
 597 22 l 1,29,-1
 683 63 l 1,30,-1
 683 299 l 24,31,32
 682 311 682 311 662 341 c 24,33,34
 654 353 654 353 640 362 c 24,35,36
 614 379 614 379 597 384 c 24,37,38
 575 389 575 389 555 384 c 24,39,40
 539 380 539 380 512 362 c 24,41,42
 499 354 499 354 490 341 c 24,43,44
 470 310 470 310 469 299 c 24,45,-1
 469 63 l 1,46,-1
 555 22 l 1,47,-1
 555 0 l 1,48,-1
 299 0 l 1,49,-1
 299 22 l 1,50,-1
 384 63 l 1,51,-1
 384 299 l 24,52,53
 383 311 383 311 362 341 c 24,54,55
 354 353 354 353 341 362 c 24,56,57
 315 379 315 379 299 384 c 24,58,59
 274 390 274 390 256 384 c 24,60,61
 175 356 175 356 171 341 c 24,62,-1
 171 63 l 1,63,-1
 256 22 l 1,64,-1
 256 0 l 1,65,-1
 0 0 l 1,0,-1
EndSplineSet
Validated: 37
EndChar

StartChar: n
Encoding: 110 110 81
Width: 629
Flags: W
LayerCount: 2
Fore
SplineSet
0 0 m 1,0,-1
 0 22 l 1,1,-1
 85 63 l 1,2,-1
 85 362 l 1,3,-1
 0 406 l 1,4,-1
 0 427 l 1,5,-1
 171 427 l 1,6,-1
 171 384 l 28,7,-1
 256 427 l 28,8,9
 299 437 299 437 341 427 c 28,10,11
 398 413 398 413 427 384 c 28,12,13
 463 348 463 348 469 299 c 28,14,-1
 469 63 l 1,15,-1
 555 22 l 1,16,-1
 555 0 l 1,17,-1
 299 0 l 1,18,-1
 299 22 l 1,19,-1
 384 63 l 1,20,-1
 384 299 l 28,21,22
 383 311 383 311 362 341 c 28,23,24
 354 353 354 353 341 362 c 28,25,26
 315 379 315 379 299 384 c 28,27,28
 274 390 274 390 256 384 c 28,29,30
 175 356 175 356 171 341 c 28,31,-1
 171 63 l 1,32,-1
 256 22 l 1,33,-1
 256 0 l 1,34,-1
 0 0 l 1,0,-1
EndSplineSet
Validated: 33
EndChar

StartChar: o
Encoding: 111 111 82
Width: 544
Flags: W
LayerCount: 2
Fore
SplineSet
299 43 m 28,0,1
 316 47 316 47 341 85 c 28,2,3
 375 136 375 136 384 171 c 28,4,5
 394 214 394 214 384 256 c 28,6,7
 376 290 376 290 341 341 c 28,8,9
 315 380 315 380 299 384 c 28,10,11
 234 400 234 400 171 384 c 28,12,13
 155 380 155 380 128 341 c 28,14,15
 93 290 93 290 85 256 c 28,16,17
 75 213 75 213 85 171 c 28,18,19
 93 137 93 137 128 85 c 28,20,21
 154 46 154 46 171 43 c 28,22,23
 236 27 236 27 299 43 c 28,0,1
171 0 m 28,24,25
 140 6 140 6 85 43 c 28,26,27
 59 59 59 59 43 85 c 28,28,29
 9 136 9 136 0 171 c 28,30,31
 -10 214 -10 214 0 256 c 28,32,33
 8 290 8 290 43 341 c 28,34,35
 59 367 59 367 85 384 c 28,36,37
 139 421 139 421 171 427 c 28,38,39
 234 439 234 439 299 427 c 28,40,41
 330 421 330 421 384 384 c 28,42,43
 410 368 410 368 427 341 c 28,44,45
 462 290 462 290 469 256 c 28,46,47
 479 213 479 213 469 171 c 28,48,49
 461 137 461 137 427 85 c 28,50,51
 410 59 410 59 384 43 c 28,52,53
 330 6 330 6 299 0 c 28,54,55
 234 -12 234 -12 171 0 c 28,24,25
EndSplineSet
Validated: 33
EndChar

StartChar: p
Encoding: 112 112 83
Width: 586
Flags: W
LayerCount: 2
Fore
SplineSet
341 43 m 24,0,1
 358 47 358 47 384 63 c 24,2,3
 397 71 397 71 406 85 c 24,4,5
 426 115 426 115 427 128 c 24,6,7
 435 213 435 213 427 299 c 24,8,9
 426 311 426 311 406 341 c 24,10,11
 398 353 398 353 384 362 c 24,12,13
 358 379 358 379 341 384 c 24,14,15
 315 390 315 390 299 384 c 24,16,17
 171 336 171 336 171 319 c 4,18,19
 171 207 171 207 171 106 c 28,20,21
 171 90 171 90 299 43 c 24,22,23
 315 37 315 37 341 43 c 24,0,1
85 -299 m 1,24,-1
 85 362 l 1,25,-1
 0 406 l 1,26,-1
 0 427 l 1,27,-1
 171 427 l 1,28,-1
 171 362 l 24,29,-1
 299 427 l 24,30,31
 338 438 338 438 384 427 c 24,32,33
 441 413 441 413 469 384 c 24,34,35
 503 350 503 350 512 299 c 24,36,37
 526 214 526 214 512 128 c 24,38,39
 504 77 504 77 469 43 c 24,40,41
 440 14 440 14 384 0 c 24,42,43
 337 -11 337 -11 299 0 c 24,44,-1
 171 63 l 24,45,-1
 171 -234 l 1,46,-1
 256 -278 l 1,47,-1
 256 -299 l 1,48,-1
 85 -299 l 1,24,-1
EndSplineSet
Validated: 33
EndChar

StartChar: q
Encoding: 113 113 84
Width: 501
Flags: W
LayerCount: 2
Fore
SplineSet
213 43 m 24,0,1
 340 90 340 90 341 106 c 0,2,3
 348 202 348 202 341 319 c 0,4,5
 340 335 340 335 213 384 c 24,6,7
 196 390 196 390 171 384 c 24,8,9
 155 380 155 380 128 362 c 24,10,11
 115 354 115 354 106 341 c 24,12,13
 86 311 86 311 85 299 c 24,14,15
 77 214 77 214 85 128 c 24,16,17
 86 115 86 115 106 85 c 24,18,19
 114 72 114 72 128 63 c 24,20,21
 155 46 155 46 171 43 c 24,22,23
 196 37 196 37 213 43 c 24,0,1
256 -299 m 1,24,-1
 256 -278 l 1,25,-1
 341 -234 l 1,26,-1
 341 63 l 24,27,-1
 213 0 l 24,28,29
 174 -11 174 -11 128 0 c 24,30,31
 71 14 71 14 43 43 c 24,32,33
 9 77 9 77 0 128 c 24,34,35
 -14 213 -14 213 0 299 c 24,36,37
 8 350 8 350 43 384 c 24,38,39
 72 413 72 413 128 427 c 24,40,41
 174 438 174 438 213 427 c 24,42,-1
 341 362 l 24,43,-1
 406 427 l 1,44,-1
 427 427 l 1,45,-1
 427 -299 l 1,46,-1
 256 -299 l 1,24,-1
EndSplineSet
Validated: 33
EndChar

StartChar: r
Encoding: 114 114 85
Width: 458
Flags: W
LayerCount: 2
Fore
SplineSet
0 0 m 1,0,-1
 0 22 l 1,1,-1
 85 63 l 1,2,-1
 85 362 l 1,3,-1
 0 406 l 1,4,-1
 0 427 l 1,5,-1
 171 427 l 1,6,-1
 171 299 l 0,7,8
 178 348 178 348 213 384 c 24,9,10
 235 406 235 406 299 427 c 24,11,12
 328 436 328 436 341 427 c 24,13,14
 353 419 353 419 362 384 c 24,15,16
 369 353 369 353 362 341 c 28,17,18
 343 309 343 309 324 319 c 4,19,20
 307 328 307 328 289 338 c 0,21,-1
 269 367 l 0,22,23
 247 366 247 366 234 341 c 0,24,25
 179 249 179 249 171 213 c 24,26,-1
 171 63 l 1,27,-1
 256 22 l 1,28,-1
 256 0 l 1,29,-1
 0 0 l 1,0,-1
EndSplineSet
Validated: 33
EndChar

StartChar: s
Encoding: 115 115 86
Width: 373
Flags: W
LayerCount: 2
Fore
SplineSet
85 0 m 28,0,1
 32 11 32 11 0 43 c 28,2,3
 -17 60 -17 60 0 85 c 28,4,5
 14 107 14 107 43 106 c 28,6,7
 63 106 63 106 85 85 c 28,8,-1
 106 43 l 28,9,10
 130 35 130 35 213 43 c 28,11,12
 230 45 230 45 242 56 c 28,13,14
 252 66 252 66 256 85 c 28,15,16
 263 120 263 120 256 128 c 4,17,18
 231 157 231 157 178 173 c 4,19,-1
 104 186 l 4,20,21
 62 199 62 199 43 213 c 4,22,23
 6 238 6 238 0 256 c 28,24,25
 -9 285 -9 285 0 341 c 28,26,27
 2 355 2 355 22 384 c 28,28,29
 30 397 30 397 43 406 c 28,30,31
 74 426 74 426 85 427 c 28,32,33
 163 437 163 437 213 427 c 28,34,35
 267 416 267 416 299 384 c 28,36,37
 316 367 316 367 299 341 c 28,38,39
 285 319 285 319 256 319 c 28,40,41
 234 319 234 319 213 341 c 28,42,-1
 193 384 l 28,43,44
 166 393 166 393 85 384 c 28,45,46
 68 382 68 382 56 370 c 28,47,48
 46 360 46 360 43 341 c 28,49,50
 37 306 37 306 43 299 c 4,51,52
 59 281 59 281 115 263 c 4,53,-1
 188 250 l 4,54,55
 218 240 218 240 256 213 c 132,-1,56
 294 186 294 186 299 171 c 28,57,58
 308 141 308 141 299 85 c 28,59,60
 297 72 297 72 278 43 c 28,61,62
 269 30 269 30 256 22 c 28,63,64
 226 2 226 2 213 0 c 28,65,66
 134 -10 134 -10 85 0 c 28,0,1
EndSplineSet
Validated: 33
EndChar

StartChar: t
Encoding: 116 116 87
Width: 330
Flags: W
LayerCount: 2
Fore
SplineSet
128 0 m 24,0,1
 111 4 111 4 85 22 c 24,2,3
 72 30 72 30 63 43 c 24,4,-1
 43 85 l 1,5,-1
 43 384 l 1,6,-1
 0 384 l 1,7,-1
 0 427 l 1,8,-1
 43 427 l 1,9,-1
 43 512 l 1,10,-1
 128 555 l 1,11,-1
 128 427 l 1,12,-1
 256 427 l 1,13,-1
 256 384 l 1,14,-1
 128 384 l 1,15,-1
 128 85 l 1,16,-1
 142 56 l 24,17,18
 156 42 156 42 170 42.5 c 152,-1,19
 184 43 184 43 199 56 c 24,20,-1
 213 85 l 1,21,-1
 256 85 l 1,22,-1
 234 43 l 24,23,24
 226 30 226 30 213 22 c 24,25,26
 187 5 187 5 171 0 c 24,27,28
 150 -5 150 -5 128 0 c 24,0,1
EndSplineSet
Validated: 33
EndChar

StartChar: u
Encoding: 117 117 88
Width: 629
Flags: W
LayerCount: 2
Fore
SplineSet
213 0 m 28,0,1
 156 14 156 14 128 43 c 28,2,3
 92 79 92 79 85 128 c 28,4,-1
 85 362 l 1,5,-1
 0 406 l 1,6,-1
 0 427 l 1,7,-1
 171 427 l 1,8,-1
 171 128 l 28,9,10
 172 117 172 117 193 85 c 28,11,12
 201 72 201 72 213 63 c 28,13,14
 239 46 239 46 256 43 c 28,15,16
 281 37 281 37 299 43 c 28,17,18
 380 71 380 71 384 85 c 28,19,-1
 384 362 l 1,20,-1
 299 406 l 1,21,-1
 299 427 l 1,22,-1
 469 427 l 1,23,-1
 469 63 l 1,24,-1
 555 22 l 1,25,-1
 555 0 l 1,26,-1
 384 0 l 1,27,-1
 384 43 l 28,28,-1
 299 0 l 28,29,30
 256 -10 256 -10 213 0 c 28,0,1
EndSplineSet
Validated: 33
EndChar

StartChar: v
Encoding: 118 118 89
Width: 629
Flags: W
LayerCount: 2
Fore
SplineSet
234 0 m 1,0,-1
 43 384 l 1,1,-1
 0 406 l 1,2,-1
 0 427 l 1,3,-1
 213 427 l 1,4,-1
 213 406 l 1,5,-1
 154 375 l 1,6,-1
 288 106 l 1,7,-1
 418 367 l 1,8,-1
 341 406 l 1,9,-1
 341 427 l 1,10,-1
 555 427 l 1,11,-1
 555 406 l 1,12,-1
 483 370 l 1,13,-1
 299 0 l 1,14,-1
 234 0 l 1,0,-1
EndSplineSet
Validated: 1
EndChar

StartChar: w
Encoding: 119 119 90
Width: 800
Flags: W
LayerCount: 2
Fore
SplineSet
199 0 m 1,0,-1
 77 367 l 1,1,-1
 0 406 l 1,2,-1
 0 427 l 1,3,-1
 213 427 l 1,4,-1
 213 406 l 1,5,-1
 159 378 l 1,6,-1
 256 85 l 1,7,-1
 370 427 l 1,8,-1
 398 427 l 1,9,-1
 512 85 l 1,10,-1
 609 378 l 1,11,-1
 555 406 l 1,12,-1
 555 427 l 1,13,-1
 725 427 l 1,14,-1
 725 406 l 1,15,-1
 648 367 l 1,16,-1
 526 0 l 1,17,-1
 455 0 l 1,18,-1
 370 256 l 1,19,-1
 370 256 l 1,20,-1
 362 278 l 1,21,-1
 270 0 l 1,22,-1
 199 0 l 1,0,-1
EndSplineSet
Validated: 5
EndChar

StartChar: x
Encoding: 120 120 91
Width: 544
Flags: W
LayerCount: 2
Fore
SplineSet
0 0 m 1,0,-1
 0 22 l 1,1,-1
 85 63 l 1,2,-1
 178 203 l 1,3,-1
 56 384 l 1,4,-1
 58 384 l 1,5,-1
 16 406 l 1,6,-1
 16 427 l 1,7,-1
 197 427 l 5,8,-1
 197 406 l 5,9,-1
 155 384 l 5,10,-1
 211 299 l 5,11,-1
 232 266 l 5,12,-1
 314 389 l 5,13,-1
 299 406 l 1,14,-1
 299 427 l 1,15,-1
 453 427 l 5,16,-1
 453 406 l 5,17,-1
 368 362 l 5,18,-1
 268 213 l 5,19,-1
 368 63 l 5,20,-1
 453 22 l 5,21,-1
 453 0 l 5,22,-1
 256 0 l 1,23,-1
 256 22 l 1,24,-1
 287 37 l 1,25,-1
 285 43 l 1,26,-1
 213 150 l 1,27,-1
 138 37 l 1,28,-1
 171 22 l 1,29,-1
 171 0 l 1,30,-1
 0 0 l 1,0,-1
EndSplineSet
Validated: 1
EndChar

StartChar: y
Encoding: 121 121 92
Width: 629
Flags: W
LayerCount: 2
Fore
SplineSet
43 -299 m 24,0,1
 14 -285 14 -285 0 -256 c 24,2,3
 -12 -231 -12 -231 0 -213 c 24,4,5
 14 -193 14 -193 43 -193 c 24,6,-1
 85 -213 l 24,7,8
 122 -222 122 -222 128 -213 c 24,9,-1
 234 0 l 1,10,-1
 46 375 l 5,11,-1
 0 406 l 1,12,-1
 0 427 l 1,13,-1
 213 427 l 1,14,-1
 213 406 l 1,15,-1
 154 375 l 1,16,-1
 288 106 l 1,17,-1
 418 367 l 1,18,-1
 341 406 l 1,19,-1
 341 427 l 1,20,-1
 555 427 l 1,21,-1
 555 406 l 1,22,-1
 483 370 l 1,23,-1
 193 -213 l 24,24,25
 181 -236 181 -236 128 -278 c 24,26,27
 109 -293 109 -293 85 -299 c 24,28,29
 57 -306 57 -306 43 -299 c 24,0,1
EndSplineSet
Validated: 33
EndChar

StartChar: z
Encoding: 122 122 93
Width: 416
Flags: W
LayerCount: 2
Fore
SplineSet
0 0 m 1,0,-1
 203 384 l 1,1,-1
 63 384 l 1,2,-1
 22 299 l 1,3,-1
 0 299 l 1,4,-1
 0 427 l 1,5,-1
 319 427 l 1,6,-1
 118 43 l 5,7,-1
 278 43 l 1,8,-1
 319 128 l 1,9,-1
 341 128 l 1,10,-1
 341 0 l 1,11,-1
 0 0 l 1,0,-1
EndSplineSet
Validated: 1
EndChar

StartChar: braceleft
Encoding: 123 123 94
Width: 416
Flags: W
CounterMasks: 1 e0
LayerCount: 2
Fore
SplineSet
256 -43 m 24,0,1
 222 -35 222 -35 171 0 c 24,2,3
 145 17 145 17 128 43 c 24,4,5
 99 86 99 86 85 128 c 24,6,7
 78 150 78 150 85 171 c 24,8,-1
 128 256 l 24,9,10
 129 264 129 264 106 299 c 24,11,12
 98 311 98 311 85 319 c 24,13,14
 59 336 59 336 43 341 c 24,15,-1
 0 341 l 1,16,-1
 0 384 l 1,17,-1
 43 384 l 24,18,19
 60 388 60 388 85 406 c 24,20,21
 97 414 97 414 106 427 c 24,22,23
 129 461 129 461 128 469 c 24,24,-1
 85 555 l 24,25,26
 78 577 78 577 85 597 c 24,27,28
 99 639 99 639 128 683 c 24,29,30
 145 709 145 709 171 725 c 24,31,32
 222 759 222 759 256 768 c 24,33,-1
 341 768 l 1,34,-1
 341 725 l 1,35,-1
 256 725 l 24,36,37
 242 723 242 723 213 705 c 24,38,39
 201 697 201 697 193 683 c 24,40,41
 176 656 176 656 171 640 c 24,42,43
 165 615 165 615 171 597 c 24,44,-1
 213 512 l 24,45,46
 219 494 219 494 213 469 c 24,47,48
 209 452 209 452 193 427 c 24,49,50
 184 413 184 413 171 406 c 24,51,-1
 85 362 l 24,52,-1
 171 319 l 24,53,54
 184 312 184 312 193 299 c 24,55,56
 210 273 210 273 213 256 c 24,57,58
 219 231 219 231 213 213 c 24,59,-1
 171 128 l 24,60,61
 165 110 165 110 171 85 c 24,62,63
 176 69 176 69 193 43 c 24,64,65
 201 30 201 30 213 22 c 24,66,67
 242 4 242 4 256 0 c 24,68,-1
 341 0 l 1,69,-1
 341 -43 l 1,70,-1
 256 -43 l 24,0,1
EndSplineSet
Validated: 33
EndChar

StartChar: bar
Encoding: 124 124 95
Width: 117
Flags: W
LayerCount: 2
Fore
SplineSet
0 -43 m 1,0,-1
 0 768 l 1,1,-1
 43 768 l 1,2,-1
 43 -43 l 1,3,-1
 0 -43 l 1,0,-1
EndSplineSet
Validated: 1
EndChar

StartChar: braceright
Encoding: 125 125 96
Width: 416
Flags: W
CounterMasks: 1 e0
LayerCount: 2
Fore
SplineSet
0 -43 m 1,0,-1
 0 0 l 1,1,-1
 85 0 l 28,2,3
 99 3 99 3 128 22 c 28,4,5
 141 30 141 30 150 43 c 28,6,7
 167 69 167 69 171 85 c 28,8,9
 177 110 177 110 171 128 c 28,10,-1
 128 213 l 28,11,12
 122 231 122 231 128 256 c 28,13,14
 132 273 132 273 150 299 c 28,15,16
 160 313 160 313 171 319 c 28,17,-1
 256 362 l 28,18,-1
 171 406 l 28,19,20
 159 413 159 413 150 427 c 28,21,22
 133 453 133 453 128 469 c 28,23,24
 122 494 122 494 128 512 c 28,25,-1
 171 597 l 28,26,27
 177 615 177 615 171 640 c 28,28,29
 167 657 167 657 150 683 c 28,30,31
 142 696 142 696 128 705 c 28,32,33
 99 723 99 723 85 725 c 28,34,-1
 0 725 l 1,35,-1
 0 768 l 1,36,-1
 85 768 l 28,37,38
 119 760 119 760 171 725 c 28,39,40
 197 709 197 709 213 683 c 28,41,42
 242 640 242 640 256 597 c 28,43,44
 263 575 263 575 256 555 c 28,45,-1
 213 469 l 28,46,47
 212 461 212 461 234 427 c 28,48,49
 242 415 242 415 256 406 c 28,50,-1
 299 384 l 1,51,-1
 341 384 l 1,52,-1
 341 341 l 1,53,-1
 299 341 l 1,54,-1
 256 319 l 28,55,56
 244 311 244 311 234 299 c 28,57,58
 211 265 211 265 213 256 c 28,59,-1
 256 171 l 28,60,61
 263 149 263 149 256 128 c 28,62,63
 242 85 242 85 213 43 c 28,64,65
 196 17 196 17 171 0 c 28,66,67
 120 -34 120 -34 85 -43 c 28,68,-1
 0 -43 l 1,0,-1
EndSplineSet
Validated: 33
EndChar

StartChar: asciitilde
Encoding: 126 126 97
Width: 458
Flags: W
LayerCount: 2
Fore
SplineSet
0 512 m 1,0,-1
 0 555 l 24,1,2
 4 572 4 572 22 597 c 24,3,4
 30 609 30 609 43 618 c 24,5,6
 69 635 69 635 85 640 c 24,7,8
 110 646 110 646 128 640 c 24,9,10
 154 632 154 632 213 597 c 24,11,-1
 278 555 l 24,12,13
 290 549 290 549 299 555 c 24,14,15
 321 569 321 569 341 597 c 24,16,-1
 362 640 l 1,17,-1
 384 640 l 1,18,-1
 384 597 l 24,19,20
 380 581 380 581 362 555 c 24,21,22
 354 542 354 542 341 534 c 24,23,24
 315 517 315 517 299 512 c 24,25,26
 274 506 274 506 256 512 c 24,27,28
 229 521 229 521 171 555 c 24,29,-1
 106 597 l 24,30,31
 94 603 94 603 85 597 c 24,32,33
 63 583 63 583 43 555 c 24,34,-1
 22 512 l 1,35,-1
 0 512 l 1,0,-1
EndSplineSet
Validated: 33
EndChar

StartChar: quoteleft
Encoding: 8216 8216 98
Width: 202
Flags: W
LayerCount: 2
Fore
SplineSet
43 512 m 1,0,-1
 0 555 l 1,1,-1
 0 640 l 1,2,-1
 22 683 l 1,3,-1
 63 725 l 1,4,-1
 85 725 l 1,5,-1
 85 683 l 1,6,-1
 56 669 l 1,7,-1
 43 640 l 1,8,-1
 85 640 l 1,9,-1
 128 597 l 1,10,-1
 128 555 l 1,11,-1
 85 512 l 1,12,-1
 43 512 l 1,0,-1
EndSplineSet
Validated: 1
EndChar

StartChar: quoteright
Encoding: 8217 8217 99
Width: 202
Flags: W
LayerCount: 2
Fore
SplineSet
43 512 m 1,0,-1
 43 555 l 1,1,-1
 71 568 l 1,2,-1
 85 597 l 1,3,-1
 43 597 l 1,4,-1
 0 640 l 1,5,-1
 0 683 l 1,6,-1
 43 725 l 1,7,-1
 85 725 l 1,8,-1
 128 683 l 1,9,-1
 128 597 l 1,10,-1
 106 555 l 1,11,-1
 63 512 l 1,12,-1
 43 512 l 1,0,-1
EndSplineSet
Validated: 1
EndChar

StartChar: quotedblleft
Encoding: 8220 8220 100
Width: 373
Flags: W
LayerCount: 2
Fore
SplineSet
43 512 m 1,0,-1
 0 555 l 1,1,-1
 0 640 l 1,2,-1
 22 683 l 1,3,-1
 63 725 l 1,4,-1
 85 725 l 1,5,-1
 85 683 l 1,6,-1
 56 669 l 1,7,-1
 43 640 l 1,8,-1
 85 640 l 1,9,-1
 128 597 l 1,10,-1
 128 555 l 1,11,-1
 85 512 l 1,12,-1
 43 512 l 1,0,-1
213 512 m 1,13,-1
 171 555 l 1,14,-1
 171 640 l 1,15,-1
 193 683 l 1,16,-1
 234 725 l 1,17,-1
 256 725 l 1,18,-1
 256 683 l 1,19,-1
 227 669 l 1,20,-1
 213 640 l 1,21,-1
 256 640 l 1,22,-1
 299 597 l 1,23,-1
 299 555 l 1,24,-1
 256 512 l 1,25,-1
 213 512 l 1,13,-1
EndSplineSet
Validated: 1
EndChar

StartChar: quotedblright
Encoding: 8221 8221 101
Width: 373
Flags: W
LayerCount: 2
Fore
SplineSet
43 512 m 1,0,-1
 43 555 l 1,1,-1
 71 568 l 1,2,-1
 85 597 l 1,3,-1
 43 597 l 1,4,-1
 0 640 l 1,5,-1
 0 683 l 1,6,-1
 43 725 l 1,7,-1
 85 725 l 1,8,-1
 128 683 l 1,9,-1
 128 597 l 1,10,-1
 106 555 l 1,11,-1
 63 512 l 1,12,-1
 43 512 l 1,0,-1
213 512 m 1,13,-1
 213 555 l 1,14,-1
 242 568 l 1,15,-1
 256 597 l 1,16,-1
 213 597 l 1,17,-1
 171 640 l 1,18,-1
 171 683 l 1,19,-1
 213 725 l 1,20,-1
 256 725 l 1,21,-1
 299 683 l 1,22,-1
 299 597 l 1,23,-1
 278 555 l 1,24,-1
 234 512 l 1,25,-1
 213 512 l 1,13,-1
EndSplineSet
Validated: 1
EndChar

StartChar: logicalnot
Encoding: 172 172 102
Width: 458
Flags: W
LayerCount: 2
Fore
SplineSet
0 384 m 1,0,-1
 0 427 l 1,1,-1
 384 427 l 1,2,-1
 384 279 l 5,3,-1
 339 279 l 0,4,-1
 339 384 l 0,5,-1
 0 384 l 1,0,-1
EndSplineSet
Validated: 1
EndChar

StartChar: macron
Encoding: 175 175 103
Width: 330
Flags: W
LayerCount: 2
Fore
SplineSet
213 725 m 1,0,-1
 0 725 l 1,1,-1
 0 768 l 1,2,-1
 213 768 l 4,3,-1
 213 725 l 1,0,-1
EndSplineSet
Validated: 1
EndChar

StartChar: exclamdown
Encoding: 161 161 105
Width: 202
Flags: W
LayerCount: 2
Fore
SplineSet
43 725 m 5,0,-1
 0 683 l 5,1,-1
 0 640 l 5,2,-1
 43 597 l 5,3,-1
 85 597 l 5,4,-1
 128 640 l 5,5,-1
 128 683 l 5,6,-1
 85 725 l 5,7,-1
 43 725 l 5,0,-1
43 512 m 5,8,-1
 0 341 l 5,9,-1
 0 85 l 5,10,-1
 43 0 l 5,11,-1
 85 0 l 5,12,-1
 128 85 l 5,13,-1
 128 341 l 5,14,-1
 85 512 l 5,15,-1
 43 512 l 5,8,-1
EndSplineSet
Validated: 9
EndChar

StartChar: questiondown
Encoding: 191 191 106
Width: 586
Flags: W
LayerCount: 2
Fore
SplineSet
278 725 m 5,0,-1
 319 683 l 5,1,-1
 319 640 l 5,2,-1
 278 597 l 5,3,-1
 234 597 l 5,4,-1
 193 640 l 5,5,-1
 193 683 l 5,6,-1
 234 725 l 5,7,-1
 278 725 l 5,0,-1
299 512 m 5,8,-1
 299 469 l 28,9,10
 293 443 293 443 278 427 c 28,11,-1
 150 299 l 28,12,13
 125 268 125 268 106 213 c 28,14,15
 99 191 99 191 106 171 c 28,16,17
 120 128 120 128 150 85 c 28,18,19
 175 47 175 47 193 43 c 28,20,21
 240 30 240 30 299 43 c 28,22,-1
 384 85 l 28,23,-1
 384 85 l 28,24,25
 406 106 l 28,26,-1
 384 128 l 28,27,28
 376 154 376 154 384 171 c 28,29,30
 398 200 398 200 427 213 c 28,31,32
 449 223 449 223 469 213 c 28,33,34
 498 199 498 199 512 171 c 28,35,36
 524 146 524 146 512 128 c 28,37,38
 483 86 483 86 427 43 c 28,39,40
 379 6 379 6 341 0 c 28,41,42
 256 -14 256 -14 171 0 c 28,43,44
 142 5 142 5 85 43 c 28,45,46
 59 60 59 60 43 85 c 28,47,48
 14 127 14 127 0 171 c 28,49,50
 -6 189 -6 189 0 213 c 28,51,52
 6 240 6 240 22 256 c 28,53,-1
 193 427 l 28,54,-1
 234 512 l 5,55,-1
 299 512 l 5,8,-1
EndSplineSet
Validated: 37
EndChar

StartChar: ordfeminine
Encoding: 170 170 107
Width: 458
Flags: W
LayerCount: 2
Fore
SplineSet
102 531 m 28,0,1
 110 532 110 532 117 539 c 28,2,3
 123 545 123 545 124 553 c 28,4,-1
 124 616 l 5,5,-1
 59 616 l 28,6,7
 51 615 51 615 45 609 c 28,8,9
 39 603 39 603 38 596 c 28,10,11
 35 574 35 574 38 553 c 28,12,13
 39 545 39 545 45 538.5 c 156,-1,14
 51 532 51 532 59 531 c 28,15,16
 80 528 80 528 102 531 c 28,0,1
59 510 m 4,17,18
 46 512 46 512 16 531 c 28,19,20
 -2 543 -2 543 -4 553 c 28,21,22
 -11 575 -11 575 -4 596 c 28,23,24
 -1 605 -1 605 16 616 c 28,25,26
 44 634 44 634 59 638 c 28,27,-1
 124 638 l 5,28,-1
 124 681 l 28,29,30
 123 689 123 689 117 695 c 28,31,32
 111 701 111 701 102 702 c 28,33,34
 77 706 77 706 71 702 c 28,35,-1
 59 681 l 28,36,37
 49 671 49 671 38 671 c 28,38,39
 24 671 24 671 16 681 c 28,40,41
 8 694 8 694 16 702 c 28,42,43
 30 716 30 716 59 724 c 28,44,45
 81 729 81 729 102 724 c 28,46,47
 119 720 119 720 144 702 c 28,48,49
 164 689 164 689 166 681 c 28,50,-1
 166 553 l 5,51,-1
 173 539 l 5,52,-1
 187 531 l 5,53,-1
 209 543 l 5,54,-1
 209 521 l 5,55,-1
 187 510 l 5,56,-1
 166 510 l 5,57,-1
 144 521 l 5,58,-1
 134 531 l 5,59,-1
 131 539 l 5,60,-1
 102 510 l 28,61,62
 84 507 84 507 59 510 c 4,17,18
EndSplineSet
Validated: 33
EndChar

StartChar: ordmasculine
Encoding: 186 186 108
Width: 544
Flags: W
LayerCount: 2
Fore
SplineSet
151 528 m 28,0,1
 159 530 159 530 172 550 c 28,2,3
 189 576 189 576 194 592 c 28,4,5
 199 614 199 614 194 635 c 28,6,7
 190 652 190 652 172 678 c 28,8,9
 159 697 159 697 151 699 c 28,10,11
 119 707 119 707 87 699 c 28,12,13
 79 697 79 697 66 678 c 28,14,15
 49 652 49 652 44 635 c 28,16,17
 39 613 39 613 44 592 c 28,18,19
 48 575 48 575 66 550 c 28,20,21
 79 531 79 531 87 528 c 28,22,23
 119 520 119 520 151 528 c 28,0,1
87 507 m 28,24,25
 72 510 72 510 44 528 c 28,26,27
 32 536 32 536 23 550 c 28,28,29
 6 576 6 576 1 592 c 28,30,31
 -4 614 -4 614 1 635 c 28,32,33
 5 652 5 652 23 678 c 28,34,35
 31 690 31 690 44 699 c 28,36,37
 72 717 72 717 87 720 c 28,38,39
 119 726 119 726 151 720 c 28,40,41
 166 717 166 717 194 699 c 28,42,43
 206 691 206 691 215 678 c 28,44,45
 232 652 232 652 237 635 c 28,46,47
 242 613 242 613 237 592 c 28,48,49
 233 575 233 575 215 550 c 28,50,51
 207 537 207 537 194 528 c 28,52,53
 166 510 166 510 151 507 c 28,54,55
 119 501 119 501 87 507 c 28,24,25
EndSplineSet
Validated: 33
EndChar

StartChar: uni00B9
Encoding: 185 185 109
Width: 247
Flags: W
LayerCount: 2
Fore
SplineSet
47 488 m 1,0,-1
 47 647 l 1,1,-1
 1 647 l 1,2,-1
 1 669 l 1,3,-1
 87 725 l 5,4,-1
 108 725 l 5,5,-1
 108 488 l 5,6,-1
 47 488 l 1,0,-1
EndSplineSet
Validated: 1
EndChar

StartChar: mu
Encoding: 181 181 110
Width: 628
Flags: W
LayerCount: 2
Fore
SplineSet
84 -256 m 1,0,-1
 84 128 l 1,1,-1
 170 118 l 1,2,-1
 170 -198 l 1,3,-1
 84 -256 l 1,0,-1
212 0 m 24,4,5
 155 14 155 14 127 43 c 0,6,7
 91 79 91 79 84 128 c 1,8,-1
 84 362 l 1,9,-1
 -1 406 l 1,10,-1
 -1 427 l 1,11,-1
 169 427 l 1,12,-1
 169 128 l 2,13,14
 170 117 170 117 190 85 c 0,15,16
 198 72 198 72 212 63 c 0,17,18
 238 46 238 46 255 43 c 0,19,20
 280 37 280 37 297 43 c 0,21,22
 378 71 378 71 383 85 c 1,23,-1
 383 362 l 1,24,-1
 297 406 l 1,25,-1
 297 427 l 1,26,-1
 468 427 l 1,27,-1
 468 63 l 1,28,-1
 553 22 l 1,29,-1
 553 0 l 1,30,-1
 383 0 l 1,31,-1
 383 43 l 1,32,-1
 297 0 l 1,33,34
 255 -10 255 -10 212 0 c 24,4,5
EndSplineSet
Validated: 37
EndChar

StartChar: acute
Encoding: 180 180 111
Width: 330
Flags: W
LayerCount: 2
Fore
SplineSet
81 469 m 5,0,-1
 294 575 l 5,1,-1
 294 618 l 5,2,-1
 251 640 l 5,3,-1
 209 611 l 5,4,-1
 38 498 l 5,5,-1
 38 469 l 5,6,-1
 81 469 l 5,0,-1
EndSplineSet
Validated: 9
EndChar

StartChar: dieresis
Encoding: 168 168 112
Width: 202
Flags: W
LayerCount: 2
Fore
SplineSet
335 516 m 1,0,-1
 292 474 l 1,1,-1
 249 474 l 1,2,-1
 207 516 l 1,3,-1
 207 559 l 1,4,-1
 249 602 l 1,5,-1
 292 602 l 1,6,-1
 335 559 l 1,7,-1
 335 516 l 1,0,-1
128 514 m 1,8,-1
 85 471 l 1,9,-1
 42 471 l 1,10,-1
 0 514 l 1,11,-1
 0 557 l 1,12,-1
 42 599 l 1,13,-1
 85 599 l 1,14,-1
 128 557 l 1,15,-1
 128 514 l 1,8,-1
EndSplineSet
Validated: 1
EndChar

StartChar: degree
Encoding: 176 176 113
Width: 501
Flags: W
LayerCount: 2
Fore
SplineSet
128 555 m 156,-1,1
 150 559 150 559 158 567 c 260,2,3
 167 576 167 576 171 597 c 28,4,5
 175 619 175 619 171 640.5 c 156,-1,6
 167 662 167 662 158 670 c 260,7,8
 149 679 149 679 128 683 c 28,9,10
 106 687 106 687 84.5 683 c 156,-1,11
 63 679 63 679 55 670 c 260,12,13
 46 661 46 661 43 640 c 28,14,15
 39 618 39 618 42.5 596.5 c 156,-1,16
 46 575 46 575 55 567 c 260,17,18
 64 558 64 558 85 555 c 28,19,0
 106 551 106 551 128 555 c 156,-1,1
85 512 m 28,20,21
 68 516 68 516 43 534 c 28,22,23
 30 542 30 542 22 555 c 28,24,25
 5 581 5 581 0 597 c 28,26,27
 -5 619 -5 619 0 640 c 28,28,29
 4 657 4 657 22 683 c 28,30,31
 30 696 30 696 43 705 c 28,32,33
 68 721 68 721 85 725 c 28,34,35
 107 730 107 730 128 725 c 28,36,37
 145 721 145 721 171 705 c 28,38,39
 184 697 184 697 193 683 c 28,40,41
 210 657 210 657 213 640 c 28,42,43
 218 618 218 618 213 597 c 28,44,45
 209 580 209 580 193 555 c 28,46,47
 185 543 185 543 171 534 c 28,48,49
 145 517 145 517 128 512 c 28,50,51
 107 507 107 507 85 512 c 28,20,21
EndSplineSet
Validated: 33
EndChar

StartChar: guillemotleft
Encoding: 171 171 114
Width: 416
Flags: W
LayerCount: 2
Fore
SplineSet
384 194 m 5,0,-1
 157 364 l 5,1,-1
 157 407 l 5,2,-1
 384 578 l 5,3,-1
 384 535 l 5,4,-1
 199 385 l 5,5,-1
 384 236 l 5,6,-1
 384 194 l 5,7,-1
 384 194 l 5,0,-1
227 193 m 5,8,-1
 0 362 l 5,9,-1
 0 406 l 5,10,-1
 227 575 l 5,11,-1
 227 534 l 5,12,-1
 43 384 l 5,13,-1
 227 234 l 5,14,-1
 227 193 l 5,15,-1
 227 193 l 5,8,-1
EndSplineSet
Validated: 5
EndChar

StartChar: guillemotright
Encoding: 187 187 115
Width: 416
Flags: W
LayerCount: 2
Fore
SplineSet
0 194 m 5,0,-1
 227 364 l 5,1,-1
 227 407 l 5,2,-1
 0 578 l 5,3,-1
 0 535 l 5,4,-1
 184 385 l 5,5,-1
 0 236 l 5,6,-1
 0 194 l 5,7,-1
 0 194 l 5,0,-1
157 193 m 5,8,-1
 384 362 l 5,9,-1
 384 406 l 5,10,-1
 157 575 l 5,11,-1
 157 534 l 5,12,-1
 341 384 l 5,13,-1
 157 234 l 5,14,-1
 157 193 l 5,15,-1
 157 193 l 5,8,-1
EndSplineSet
Validated: 5
EndChar

StartChar: multiply
Encoding: 215 215 116
Width: 458
Flags: W
LayerCount: 2
Fore
SplineSet
343 216 m 5,0,-1
 191 368 l 5,1,-1
 41 217 l 5,2,-1
 3 254 l 5,3,-1
 155 406 l 5,4,-1
 3 556 l 5,5,-1
 41 594 l 5,6,-1
 193 442 l 5,7,-1
 343 594 l 5,8,-1
 381 556 l 5,9,-1
 229 406 l 5,10,-1
 381 254 l 5,11,-1
 343 216 l 5,0,-1
EndSplineSet
Validated: 1
EndChar

StartChar: ccedilla
Encoding: 231 231 117
Width: 501
Flags: W
LayerCount: 2
Fore
SplineSet
190 -16 m 5,0,-1
 190 -57 l 5,1,-1
 250 -76 l 4,2,3
 275 -95 275 -95 243 -121 c 4,4,-1
 205 -125 l 5,5,-1
 179 -168 l 5,6,7
 254 -166 254 -166 290 -132 c 28,8,9
 323 -103 323 -103 298 -61 c 4,10,-1
 232 -40 l 4,11,-1
 232 -16 l 5,12,-1
 190 -16 l 5,0,-1
171 0 m 24,13,14
 140 6 140 6 85 43 c 24,15,16
 59 59 59 59 43 85 c 24,17,18
 9 136 9 136 0 171 c 24,19,20
 -10 214 -10 214 0 256 c 24,21,22
 8 290 8 290 43 341 c 24,23,24
 59 367 59 367 85 384 c 24,25,26
 139 421 139 421 171 427 c 24,27,28
 234 439 234 439 299 427 c 24,29,30
 352 416 352 416 384 384 c 24,31,32
 401 367 401 367 384 341 c 24,33,34
 370 319 370 319 341 319 c 24,35,36
 319 319 319 319 299 341 c 24,37,-1
 278 384 l 24,38,39
 229 400 229 400 171 384 c 24,40,41
 154 379 154 379 128 341 c 24,42,43
 93 290 93 290 85 256 c 24,44,45
 75 213 75 213 85 171 c 24,46,47
 93 137 93 137 128 85 c 24,48,49
 154 46 154 46 171 43 c 24,50,51
 234 27 234 27 299 43 c 24,52,-1
 427 106 l 1,53,-1
 427 63 l 1,54,-1
 299 0 l 24,55,56
 243 -14 243 -14 171 0 c 24,13,14
EndSplineSet
Validated: 41
EndChar

StartChar: cedilla
Encoding: 184 184 118
Width: 182
Flags: W
LayerCount: 2
Fore
SplineSet
29 -22 m 1,0,-1
 29 -62 l 1,1,-1
 88 -81 l 0,2,3
 113 -100 113 -100 81 -126 c 0,4,-1
 43 -130 l 1,5,-1
 17 -172 l 1,6,7
 92 -170 92 -170 128 -137 c 24,8,9
 161 -108 161 -108 136 -66 c 0,10,-1
 71 -45 l 0,11,-1
 71 -22 l 1,12,-1
 29 -22 l 1,0,-1
EndSplineSet
Validated: 41
EndChar

StartChar: cent
Encoding: 162 162 119
Width: 501
Flags: W
LayerCount: 2
Fore
SplineSet
261 580 m 5,0,-1
 315 580 l 5,1,-1
 156 -123 l 5,2,-1
 100 -123 l 5,3,-1
 261 580 l 5,0,-1
171 0 m 28,4,5
 140 6 140 6 85 43 c 4,6,7
 59 59 59 59 43 85 c 4,8,9
 9 136 9 136 0 171 c 4,10,11
 -10 214 -10 214 0 256 c 4,12,13
 8 290 8 290 43 341 c 4,14,15
 59 367 59 367 85 384 c 4,16,17
 139 421 139 421 171 427 c 4,18,19
 234 439 234 439 299 427 c 4,20,21
 352 416 352 416 384 384 c 4,22,23
 401 367 401 367 384 341 c 4,24,25
 370 319 370 319 341 319 c 4,26,27
 319 319 319 319 299 341 c 5,28,-1
 278 384 l 5,29,30
 229 400 229 400 171 384 c 4,31,32
 154 379 154 379 128 341 c 4,33,34
 93 290 93 290 85 256 c 4,35,36
 75 213 75 213 85 171 c 4,37,38
 93 137 93 137 128 85 c 4,39,40
 154 46 154 46 171 43 c 4,41,42
 234 27 234 27 299 43 c 5,43,-1
 427 106 l 5,44,-1
 427 63 l 5,45,-1
 299 0 l 5,46,47
 243 -14 243 -14 171 0 c 28,4,5
EndSplineSet
Validated: 37
EndChar

StartChar: Eth
Encoding: 208 208 120
Width: 672
Flags: W
LayerCount: 2
Fore
SplineSet
0 430 m 1,0,-1
 289 430 l 1,1,-1
 289 381 l 1,2,-1
 0 381 l 1,3,-1
 0 430 l 1,0,-1
EndSplineSet
Refer: 39 68 S 1 0 0 1 0 0 2
Validated: 32773
EndChar

StartChar: uni00B2
Encoding: 178 178 121
Width: 544
Flags: W
LayerCount: 2
Fore
SplineSet
22 482 m 1,0,-1
 22 503 l 1,1,-1
 114 595 l 24,2,3
 127 610 127 610 134 637 c 24,4,5
 138 649 138 649 134 665 c 24,6,7
 131 676 131 676 120 693 c 24,8,9
 112 705 112 705 106 708 c 24,10,11
 84 713 84 713 63 708 c 24,12,-1
 22 686 l 1,13,-1
 22 700 l 1,14,-1
 63 721 l 24,15,16
 80 725 80 725 106 721 c 24,17,18
 125 718 125 718 146 708 c 24,19,20
 153 704 153 704 161 693 c 24,21,22
 172 677 172 677 174 665 c 24,23,24
 177 651 177 651 174 637 c 24,25,26
 170 620 170 620 161 608 c 0,27,-1
 69 524 l 1,28,-1
 152 524 l 5,29,-1
 167 524 l 5,30,-1
 181 524 l 5,31,-1
 160 482 l 5,32,-1
 22 482 l 1,0,-1
EndSplineSet
Validated: 33
EndChar

StartChar: ae
Encoding: 230 230 122
Width: 458
Flags: W
LayerCount: 2
Fore
SplineSet
564 262 m 1,0,-1
 325 262 l 1,1,-1
 329 340 l 24,2,3
 333 346 333 346 427 390 c 0,4,5
 462 406 462 406 496 390 c 0,6,7
 519 380 519 380 544 332 c 24,8,-1
 564 262 l 1,0,-1
318 49 m 9,9,10
 355 24 355 24 427 6 c 0,11,12
 484 -8 484 -8 529 6 c 24,13,-1
 632 71 l 1,14,-1
 632 113 l 1,15,-1
 529 49 l 24,16,17
 483 35 483 35 427 49 c 24,18,19
 379 61 379 61 361 92 c 0,20,21
 342 125 342 125 324 158 c 24,22,23
 325 220 l 1,24,-1
 632 220 l 1,25,-1
 632 262 l 24,26,27
 621 305 621 305 598 348 c 24,28,29
 585 374 585 374 564 390 c 24,30,31
 529 419 529 419 496 433 c 0,32,33
 429 460 429 460 365 408 c 4,34,35
 324 375 324 375 299 384 c 0,36,37
 213 427 l 0,38,39
 176 439 176 439 128 427 c 24,40,41
 71 413 71 413 43 384 c 24,42,43
 26 367 26 367 43 341 c 24,44,45
 57 319 57 319 85 319 c 24,46,47
 107 319 107 319 128 341 c 24,48,-1
 150 384 l 24,49,50
 165 391 165 391 213 384 c 24,51,52
 229 382 229 382 241.5 369.5 c 152,-1,53
 254 357 254 357 256 341 c 24,54,-1
 256 256 l 1,55,-1
 128 256 l 24,56,57
 97 250 97 250 43 213 c 24,58,59
 6 188 6 188 0 171 c 24,60,61
 -14 129 -14 129 0 85 c 24,62,63
 6 67 6 67 43 43 c 24,64,65
 101 4 101 4 128 0 c 0,66,67
 177 -6 177 -6 213 0 c 0,68,-1
 278 43 l 1,69,-1
 278 43 l 1,70,-1
 318 49 l 9,9,10
213 43 m 24,71,72
 170 38 170 38 128 43 c 24,73,74
 112 45 112 45 99.5 57 c 152,-1,75
 87 69 87 69 85 85 c 24,76,77
 80 127 80 127 85 171 c 24,78,79
 87 187 87 187 99 199 c 152,-1,80
 111 211 111 211 128 213 c 24,81,-1
 256 213 l 1,82,-1
 256 85 l 24,83,84
 255 70 255 70 242 56 c 24,85,86
 229 45 229 45 213 43 c 24,71,72
EndSplineSet
Validated: 37
EndChar

StartChar: paragraph
Encoding: 182 182 123
Width: 1024
VWidth: 0
Flags: W
LayerCount: 2
Fore
SplineSet
420 0 m 1,0,-1
 420 729 l 1,1,-1
 480 729 l 5,2,-1
 480 0 l 1,3,-1
 420 0 l 1,0,-1
306 727 m 25,4,-1
 371 727 l 1,5,-1
 371 0 l 1,6,-1
 308 0 l 1,7,-1
 308 275 l 1,8,9
 1 292 1 292 0 500 c 0,10,11
 0 717 0 717 306 727 c 25,4,-1
EndSplineSet
Validated: 1
EndChar

StartChar: thorn
Encoding: 254 254 141
Width: 586
Flags: W
LayerCount: 2
Fore
SplineSet
341 43 m 24,0,1
 358 47 358 47 384 63 c 24,2,3
 397 71 397 71 406 85 c 24,4,5
 426 115 426 115 427 128 c 24,6,7
 435 213 435 213 427 299 c 24,8,9
 426 311 426 311 406 341 c 24,10,11
 398 353 398 353 384 362 c 24,12,13
 358 379 358 379 341 384 c 24,14,15
 315 390 315 390 299 384 c 24,16,17
 171 336 171 336 171 319 c 0,18,19
 171 207 171 207 171 106 c 24,20,21
 171 90 171 90 299 43 c 24,22,23
 315 37 315 37 341 43 c 24,0,1
85 -299 m 1,24,-1
 83 664 l 5,25,-1
 -2 707 l 5,26,-1
 -2 727 l 5,27,-1
 168 727 l 5,28,-1
 171 362 l 0,29,-1
 299 427 l 24,30,31
 338 438 338 438 384 427 c 24,32,33
 441 413 441 413 469 384 c 24,34,35
 503 350 503 350 512 299 c 24,36,37
 526 214 526 214 512 128 c 24,38,39
 504 77 504 77 469 43 c 24,40,41
 440 14 440 14 384 0 c 24,42,43
 337 -11 337 -11 299 0 c 24,44,-1
 171 63 l 24,45,-1
 171 -234 l 1,46,-1
 256 -278 l 1,47,-1
 256 -299 l 1,48,-1
 85 -299 l 1,24,-1
EndSplineSet
Validated: 33
EndChar

StartChar: brokenbar
Encoding: 166 166 149
Width: 196
VWidth: 1048
Flags: W
LayerCount: 2
Fore
SplineSet
0 -66 m 1,0,-1
 0 302 l 5,1,-1
 45 302 l 1,2,-1
 46 -66 l 1,3,-1
 0 -66 l 1,0,-1
0 425 m 1,4,-1
 0 762 l 1,5,-1
 46 762 l 1,6,-1
 45 425 l 1,7,-1
 0 425 l 1,4,-1
EndSplineSet
Validated: 1
EndChar

StartChar: currency
Encoding: 164 164 160
Width: 501
Flags: W
LayerCount: 2
Fore
SplineSet
-3 547 m 1,0,-1
 30 579 l 1,1,-1
 72 538 l 1,2,3
 93 551 93 551 109 555 c 0,4,5
 131 560 131 560 152 555 c 0,6,7
 168 551 168 551 190 537 c 1,8,-1
 232 579 l 1,9,-1
 265 547 l 1,10,-1
 222 504 l 1,11,12
 234 484 234 484 237 470 c 0,13,14
 242 448 242 448 237 427 c 0,15,16
 233 412 233 412 220 390 c 1,17,-1
 265 345 l 1,18,-1
 232 312 l 1,19,-1
 187 358 l 1,20,21
 167 345 167 345 152 342 c 0,22,23
 130 337 130 337 109 342 c 0,24,25
 95 345 95 345 75 357 c 1,26,-1
 30 312 l 1,27,-1
 -3 345 l 1,28,-1
 42 389 l 1,29,30
 27 411 27 411 24 427 c 0,31,32
 19 449 19 449 24 470 c 0,33,34
 27 485 27 485 40 504 c 1,35,-1
 -3 547 l 1,0,-1
151.5 385 m 128,-1,37
 173 389 173 389 181 397 c 0,38,39
 190 406 190 406 195 427 c 0,40,41
 199 449 199 449 195 470 c 0,42,43
 193 481 193 481 189 488 c 2,44,-1
 170 507 l 2,45,46
 162 511 162 511 152 513 c 0,47,48
 130 517 130 517 109 513 c 0,49,50
 101 511 101 511 94 509 c 2,51,-1
 70 485 l 2,52,53
 68 478 68 478 67 470 c 0,54,55
 63 448 63 448 66 427 c 0,56,57
 69 412 69 412 74 403 c 2,58,-1
 84 393 l 2,59,60
 93 387 93 387 109 385 c 0,61,36
 130 381 130 381 151.5 385 c 128,-1,37
EndSplineSet
Validated: 33
EndChar

StartChar: germandbls
Encoding: 223 223 161
Width: 572
Flags: W
LayerCount: 2
Fore
SplineSet
0 0 m 1,0,-1
 0 22 l 1,1,-1
 85 63 l 1,2,-1
 85 555 l 25,3,4
 87 574 87 574 150 683 c 24,5,6
 157 694 157 694 171 705 c 24,7,8
 202 725 202 725 213 725 c 0,9,10
 256 725 l 24,11,12
 258 722 258 722 299 705 c 0,13,14
 569 589 569 589 338 421 c 24,15,16
 327 413 327 413 309 407 c 0,17,18
 300 404 300 404 296 378 c 24,19,20
 290 343 290 343 296 336 c 0,21,22
 312 318 312 318 368 300 c 0,23,-1
 431 273 l 0,24,25
 459 260 459 260 497 232 c 4,26,27
 540 199 540 199 552 167 c 0,28,29
 562 140 562 140 552 81 c 24,30,31
 550 68 550 68 530 39 c 24,32,33
 521 26 521 26 509 17 c 24,34,35
 479 -3 479 -3 466 -4 c 24,36,37
 388 -14 388 -14 338 -4 c 24,38,39
 286 6 286 6 253 39 c 24,40,41
 236 56 236 56 253 81 c 24,42,43
 267 103 267 103 296 102 c 24,44,45
 316 102 316 102 338 81 c 24,46,-1
 359 39 l 24,47,48
 383 31 383 31 466 39 c 24,49,50
 483 41 483 41 495 52 c 24,51,52
 509 66 509 66 509 81 c 4,53,54
 509 124 l 0,55,56
 469 185 469 185 427 200 c 0,57,-1
 357 223 l 0,58,59
 315 236 315 236 296 250 c 0,60,61
 259 275 259 275 253 293 c 24,62,63
 244 322 244 322 253 378 c 0,64,65
 257 404 257 404 278 424 c 0,66,67
 434 583 434 583 234 665 c 0,68,-1
 193 640 l 0,69,70
 173 614 173 614 171 597 c 0,71,-1
 171 0 l 1,72,-1
 0 0 l 1,0,-1
EndSplineSet
Validated: 33
EndChar

StartChar: edieresis
Encoding: 235 235 165
Width: 501
Flags: W
LayerCount: 2
Fore
SplineSet
386 514 m 5,0,-1
 343 472 l 5,1,-1
 300 472 l 5,2,-1
 258 514 l 5,3,-1
 258 557 l 5,4,-1
 300 600 l 5,5,-1
 343 600 l 5,6,-1
 386 557 l 5,7,-1
 386 514 l 5,0,-1
179 512 m 5,8,-1
 136 469 l 5,9,-1
 93 469 l 5,10,-1
 51 512 l 5,11,-1
 51 555 l 5,12,-1
 93 597 l 5,13,-1
 136 597 l 5,14,-1
 179 555 l 5,15,-1
 179 512 l 5,8,-1
EndSplineSet
Refer: 72 101 N 1 0 0 1 0 0 2
Validated: 32769
EndChar

StartChar: Thorn
Encoding: 222 222 166
Width: 586
Flags: W
LayerCount: 2
Fore
SplineSet
-811 1197 m 1049,0,-1
341 208 m 28,1,2
 357 211 357 211 384 251 c 28,3,4
 418 301 418 301 427 336 c 28,5,6
 438 378 438 378 427 422 c 28,7,8
 419 455 419 455 384 507 c 28,9,10
 357 547 357 547 341 550 c 28,11,-1
 171 550 l 5,12,-1
 171 208 l 5,13,-1
 341 208 l 28,1,2
0 0 m 1,14,-1
 0 22 l 1,15,-1
 85 63 l 1,16,-1
 85 662 l 1,17,-1
 0 705 l 1,18,-1
 0 725 l 1,19,-1
 168 725 l 1,20,-1
 170 592 l 5,21,-1
 341 592 l 4,22,23
 427 550 l 28,24,25
 452 533 452 533 469 507 c 28,26,27
 504 455 504 455 512 422 c 28,28,29
 523 380 523 380 512 336 c 28,30,31
 504 304 504 304 469 251 c 28,32,33
 450 223 450 223 427 208 c 28,34,35
 372 171 372 171 341 166 c 28,36,-1
 171 166 l 5,37,-1
 171 63 l 1,38,-1
 256 22 l 1,39,-1
 256 0 l 1,40,-1
 0 0 l 1,14,-1
EndSplineSet
Validated: 33
EndChar

StartChar: oslash
Encoding: 248 248 168
Width: 544
Flags: W
LayerCount: 2
Fore
SplineSet
0 0 m 1,0,-1
 412 435 l 5,1,-1
 455 435 l 5,2,-1
 43 0 l 1,3,-1
 0 0 l 1,0,-1
EndSplineSet
Refer: 82 111 N 1 0 0 1 0 0 2
Validated: 32773
EndChar

StartChar: odieresis
Encoding: 246 246 173
Width: 544
Flags: W
LayerCount: 2
Fore
SplineSet
408 513 m 1,0,-1
 365 471 l 1,1,-1
 322 471 l 1,2,-1
 280 513 l 1,3,-1
 280 556 l 1,4,-1
 322 599 l 1,5,-1
 365 599 l 1,6,-1
 408 556 l 1,7,-1
 408 513 l 1,0,-1
201 513 m 5,8,-1
 158 470 l 5,9,-1
 115 470 l 5,10,-1
 73 513 l 5,11,-1
 73 556 l 5,12,-1
 115 598 l 5,13,-1
 158 598 l 5,14,-1
 201 556 l 5,15,-1
 201 513 l 5,8,-1
EndSplineSet
Refer: 82 111 N 1 0 0 1 0 0 2
Validated: 32769
EndChar

StartChar: eth
Encoding: 240 240 174
Width: 544
Flags: W
LayerCount: 2
Fore
SplineSet
171 0 m 0,0,1
 140 6 140 6 85 43 c 0,2,3
 59 59 59 59 43 85 c 0,4,5
 9 136 9 136 0 171 c 0,6,7
 -10 214 -10 214 0 256 c 0,8,9
 8 290 8 290 43 341 c 0,10,11
 59 367 59 367 85 384 c 0,12,13
 139 421 139 421 171 427 c 0,14,15
 234 439 234 439 299 427 c 0,16,17
 301 427 301 427 303 426 c 2,18,-1
 237 572 l 1,19,-1
 86 572 l 1,20,-1
 61 622 l 1,21,-1
 215 622 l 1,22,-1
 174 712 l 1,23,-1
 233 710 l 1,24,-1
 280 622 l 1,25,-1
 412 622 l 1,26,-1
 432 572 l 1,27,-1
 306 572 l 1,28,-1
 441 319 l 2,29,30
 463 282 463 282 469 256 c 0,31,32
 479 213 479 213 469 171 c 0,33,34
 461 137 461 137 427 85 c 0,35,36
 410 59 410 59 384 43 c 0,37,38
 330 6 330 6 299 0 c 0,39,40
 234 -12 234 -12 171 0 c 0,0,1
299 43 m 0,41,42
 316 47 316 47 341 85 c 0,43,44
 375 136 375 136 384 171 c 0,45,46
 394 214 394 214 384 256 c 0,47,48
 376 290 376 290 341 341 c 0,49,50
 315 380 315 380 299 384 c 0,51,52
 234 400 234 400 171 384 c 0,53,54
 155 380 155 380 128 341 c 0,55,56
 93 290 93 290 85 256 c 0,57,58
 75 213 75 213 85 171 c 0,59,60
 93 137 93 137 128 85 c 0,61,62
 154 46 154 46 171 43 c 0,63,64
 236 27 236 27 299 43 c 0,41,42
EndSplineSet
Validated: 33
EndChar

StartChar: uni00B3
Encoding: 179 179 176
Width: 501
Flags: W
LayerCount: 2
Fore
SplineSet
4 479 m 4,0,1
 3 482 3 482 3 485 c 132,-1,2
 3 488 3 488 3.5 490 c 132,-1,3
 4 492 4 492 6 495 c 132,-1,4
 8 498 8 498 9.5 499.5 c 132,-1,5
 11 501 11 501 13 503 c 6,6,-1
 15 505 l 5,7,-1
 19 505 l 5,8,-1
 25 505 l 5,9,10
 49 512 49 512 65 519 c 4,11,12
 82 526 82 526 91 532 c 4,13,14
 95 534 95 534 98 537 c 132,-1,15
 101 540 101 540 103 544 c 4,16,17
 112 557 112 557 116 570 c 4,18,19
 117 574 117 574 116 579 c 4,20,21
 110 596 110 596 104 604 c 4,22,23
 102 606 102 606 94 608 c 4,24,25
 91 609 91 609 88.5 609 c 132,-1,26
 86 609 86 609 85 609 c 6,27,-1
 44 588 l 5,28,-1
 31 582 l 5,29,-1
 31 595 l 5,30,-1
 31 610 l 5,31,-1
 31 615 l 5,32,-1
 36 617 l 5,33,-1
 92 645 l 5,34,35
 102 653 102 653 102 666 c 4,36,37
 102 667 102 667 100.5 669.5 c 132,-1,38
 99 672 99 672 96 677.5 c 132,-1,39
 93 683 93 683 89 689 c 4,40,41
 87 692 87 692 84.5 695 c 132,-1,42
 82 698 82 698 81 699 c 132,-1,43
 80 700 80 700 79 700 c 4,44,45
 68 703 68 703 57 700 c 5,46,-1
 16 679 l 5,47,-1
 3 673 l 5,48,-1
 3 687 l 5,49,-1
 3 701 l 5,50,-1
 3 705 l 5,51,-1
 6 708 l 6,52,53
 23 722 23 722 52 730 c 4,54,55
 67 734 67 734 84 730 c 4,56,57
 88 729 88 729 93 727 c 132,-1,58
 98 725 98 725 103.5 722 c 132,-1,59
 109 719 109 719 115 715 c 4,60,61
 117 713 117 713 119.5 711.5 c 132,-1,62
 122 710 122 710 124 708 c 132,-1,63
 126 706 126 706 128 703.5 c 132,-1,64
 130 701 130 701 131 699 c 4,65,66
 139 687 139 687 143 679.5 c 132,-1,67
 147 672 147 672 147 666 c 132,-1,68
 147 660 147 660 144 654 c 132,-1,69
 141 648 141 648 132 635 c 4,70,71
 131 634 131 634 131 633 c 6,72,-1
 131 632 l 5,73,-1
 130 632 l 5,74,-1
 129 631 l 5,75,-1
 130 630 l 6,76,77
 134 627 134 627 136.5 624.5 c 132,-1,78
 139 622 139 622 141.5 619.5 c 132,-1,79
 144 617 144 617 145 614 c 4,80,81
 150 607 150 607 154 599.5 c 132,-1,82
 158 592 158 592 161 584 c 4,83,84
 163 579 163 579 162.5 574 c 132,-1,85
 162 569 162 569 161 565 c 4,86,87
 158 557 158 557 154 549.5 c 132,-1,88
 150 542 150 542 145 535 c 4,89,90
 141 529 141 529 137.5 525 c 132,-1,91
 134 521 134 521 129 518 c 4,92,93
 105 504 105 504 71 489 c 4,94,95
 51 480 51 480 28 475 c 4,96,-1
 25.5 474 l 4,97,98
 23 473 23 473 22 473 c 132,-1,99
 21 473 21 473 19 472.5 c 132,-1,100
 17 472 17 472 15.5 472 c 132,-1,101
 14 472 14 472 12.5 472.5 c 132,-1,102
 11 473 11 473 9.5 473.5 c 132,-1,103
 8 474 8 474 6.5 475.5 c 132,-1,104
 5 477 5 477 4 479 c 4,0,1
EndSplineSet
Validated: 1025
EndChar

StartChar: udieresis
Encoding: 252 252 184
Width: 629
Flags: W
LayerCount: 2
Fore
SplineSet
426 514 m 5,0,-1
 383 472 l 5,1,-1
 340 472 l 5,2,-1
 298 514 l 5,3,-1
 298 557 l 5,4,-1
 340 600 l 5,5,-1
 383 600 l 5,6,-1
 426 557 l 5,7,-1
 426 514 l 5,0,-1
219 512 m 5,8,-1
 176 469 l 5,9,-1
 133 469 l 5,10,-1
 91 512 l 5,11,-1
 91 555 l 5,12,-1
 133 597 l 5,13,-1
 176 597 l 5,14,-1
 219 555 l 5,15,-1
 219 512 l 5,8,-1
EndSplineSet
Refer: 88 117 N 1 0 0 1 0 0 2
Validated: 32769
EndChar

StartChar: igrave
Encoding: 236 236 185
Width: 330
Flags: W
LayerCount: 2
Fore
SplineSet
0 0 m 1,0,-1
 0 22 l 1,1,-1
 85 63 l 1,2,-1
 85 362 l 1,3,-1
 0 406 l 1,4,-1
 0 427 l 1,5,-1
 171 427 l 1,6,-1
 171 63 l 1,7,-1
 256 22 l 1,8,-1
 256 0 l 1,9,-1
 0 0 l 1,0,-1
EndSplineSet
Refer: 67 96 S 1 0 0 1 -27 4 2
Validated: 32769
EndChar

StartChar: iacute
Encoding: 237 237 186
Width: 330
Flags: W
LayerCount: 2
Fore
SplineSet
0 0 m 1,0,-1
 0 22 l 1,1,-1
 85 63 l 1,2,-1
 85 362 l 1,3,-1
 0 406 l 1,4,-1
 0 427 l 1,5,-1
 171 427 l 1,6,-1
 171 63 l 1,7,-1
 256 22 l 1,8,-1
 256 0 l 1,9,-1
 0 0 l 1,0,-1
EndSplineSet
Refer: 111 180 S 1 0 0 1 -39 10 2
Validated: 32777
EndChar

StartChar: icircumflex
Encoding: 238 238 187
Width: 330
Flags: W
LayerCount: 2
Fore
SplineSet
0 0 m 1,0,-1
 0 22 l 1,1,-1
 85 63 l 1,2,-1
 85 362 l 1,3,-1
 0 406 l 1,4,-1
 0 427 l 1,5,-1
 171 427 l 1,6,-1
 171 63 l 1,7,-1
 256 22 l 1,8,-1
 256 0 l 1,9,-1
 0 0 l 1,0,-1
EndSplineSet
Refer: 65 94 S 0.75 0 0 0.5 -48 257 2
Validated: 32773
EndChar

StartChar: idieresis
Encoding: 239 239 188
Width: 330
Flags: W
LayerCount: 2
Fore
SplineSet
273 519 m 5,0,-1
 230 477 l 5,1,-1
 187 477 l 5,2,-1
 145 519 l 5,3,-1
 145 562 l 5,4,-1
 187 605 l 5,5,-1
 230 605 l 5,6,-1
 273 562 l 5,7,-1
 273 519 l 5,0,-1
67 517 m 5,8,-1
 24 474 l 5,9,-1
 -19 474 l 5,10,-1
 -61 517 l 5,11,-1
 -61 560 l 5,12,-1
 -19 602 l 5,13,-1
 24 602 l 5,14,-1
 67 560 l 5,15,-1
 67 517 l 5,8,-1
0 0 m 1,16,-1
 0 22 l 1,17,-1
 85 63 l 1,18,-1
 85 362 l 1,19,-1
 0 406 l 1,20,-1
 0 427 l 1,21,-1
 171 427 l 1,22,-1
 171 63 l 1,23,-1
 256 22 l 1,24,-1
 256 0 l 1,25,-1
 0 0 l 1,16,-1
EndSplineSet
Validated: 1
EndChar

StartChar: copyright
Encoding: 169 169 189
Width: 1647
VWidth: 2097
Flags: W
LayerCount: 2
Fore
SplineSet
551 318 m 5,0,1
 551 278 551 278 539.5 248 c 132,-1,2
 528 218 528 218 506 198 c 132,-1,3
 484 178 484 178 452.5 168 c 132,-1,4
 421 158 421 158 382 158 c 4,5,6
 341 158 341 158 308 172 c 132,-1,7
 275 186 275 186 252 212.5 c 132,-1,8
 229 239 229 239 217 275.5 c 132,-1,9
 205 312 205 312 205 356 c 6,10,-1
 205 415 l 6,11,12
 205 459 205 459 217 495.5 c 132,-1,13
 229 532 229 532 252 558 c 132,-1,14
 275 584 275 584 308 598.5 c 132,-1,15
 341 613 341 613 382 613 c 4,16,17
 421 613 421 613 452.5 603 c 132,-1,18
 484 593 484 593 506 573 c 132,-1,19
 528 553 528 553 540 523 c 132,-1,20
 552 493 552 493 552 453 c 5,21,-1
 477 453 l 5,22,23
 477 504 477 504 453 525.5 c 132,-1,24
 429 547 429 547 382 547 c 4,25,26
 356 547 356 547 337 537.5 c 132,-1,27
 318 528 318 528 305 510.5 c 132,-1,28
 292 493 292 493 285.5 468.5 c 132,-1,29
 279 444 279 444 279 416 c 6,30,-1
 279 356 l 6,31,32
 279 327 279 327 285.5 302.5 c 132,-1,33
 292 278 292 278 305 260.5 c 132,-1,34
 318 243 318 243 337 233.5 c 132,-1,35
 356 224 356 224 382 224 c 4,36,37
 429 224 429 224 453 245.5 c 132,-1,38
 477 267 477 267 477 318 c 5,39,-1
 551 318 l 5,0,1
84 386 m 4,40,41
 84 317 84 317 108 258.5 c 132,-1,42
 132 200 132 200 173.5 156.5 c 132,-1,43
 215 113 215 113 270.5 88 c 132,-1,44
 326 63 326 63 389 63 c 260,45,46
 452 63 452 63 507 88 c 132,-1,47
 562 113 562 113 603.5 156.5 c 132,-1,48
 645 200 645 200 669 258.5 c 132,-1,49
 693 317 693 317 693 386 c 4,50,51
 693 454 693 454 669 512.5 c 132,-1,52
 645 571 645 571 603.5 614.5 c 132,-1,53
 562 658 562 658 507 682.5 c 132,-1,54
 452 707 452 707 389 707 c 260,55,56
 326 707 326 707 270.5 682.5 c 132,-1,57
 215 658 215 658 173.5 614.5 c 132,-1,58
 132 571 132 571 108 512.5 c 132,-1,59
 84 454 84 454 84 386 c 4,40,41
25 386 m 260,60,61
 25 440 25 440 38 489.5 c 132,-1,62
 51 539 51 539 74.5 581.5 c 132,-1,63
 98 624 98 624 131.5 658.5 c 132,-1,64
 165 693 165 693 205.5 717.5 c 132,-1,65
 246 742 246 742 292 755.5 c 132,-1,66
 338 769 338 769 389 769 c 260,67,68
 439 769 439 769 485 755.5 c 132,-1,69
 531 742 531 742 571.5 717.5 c 132,-1,70
 612 693 612 693 645 658.5 c 132,-1,71
 678 624 678 624 702 581.5 c 132,-1,72
 726 539 726 539 739 489.5 c 132,-1,73
 752 440 752 440 752 386 c 260,74,75
 752 332 752 332 739 282.5 c 132,-1,76
 726 233 726 233 702 190 c 132,-1,77
 678 147 678 147 645 112.5 c 132,-1,78
 612 78 612 78 571.5 53.5 c 132,-1,79
 531 29 531 29 485 15.5 c 132,-1,80
 439 2 439 2 389 2 c 260,81,82
 339 2 339 2 292.5 15.5 c 132,-1,83
 246 29 246 29 205.5 53.5 c 132,-1,84
 165 78 165 78 131.5 112.5 c 132,-1,85
 98 147 98 147 74.5 190 c 132,-1,86
 51 233 51 233 38 282.5 c 132,-1,87
 25 332 25 332 25 386 c 260,60,61
EndSplineSet
Validated: 1
EndChar

StartChar: registered
Encoding: 174 174 190
Width: 1648
VWidth: 2097
Flags: W
LayerCount: 2
Fore
SplineSet
1 386 m 260,0,1
 1 440 1 440 14 489.5 c 132,-1,2
 27 539 27 539 50.5 581.5 c 132,-1,3
 74 624 74 624 107 658.5 c 132,-1,4
 140 693 140 693 180.5 717.5 c 132,-1,5
 221 742 221 742 267.5 755.5 c 132,-1,6
 314 769 314 769 364 769 c 260,7,8
 414 769 414 769 460.5 755.5 c 132,-1,9
 507 742 507 742 547 717.5 c 132,-1,10
 587 693 587 693 620.5 658.5 c 132,-1,11
 654 624 654 624 677.5 581.5 c 132,-1,12
 701 539 701 539 714 489.5 c 132,-1,13
 727 440 727 440 727 386 c 260,14,15
 727 332 727 332 714 282.5 c 132,-1,16
 701 233 701 233 677.5 190 c 132,-1,17
 654 147 654 147 620.5 112.5 c 132,-1,18
 587 78 587 78 547 53.5 c 132,-1,19
 507 29 507 29 460.5 15.5 c 132,-1,20
 414 2 414 2 364 2 c 260,21,22
 314 2 314 2 267.5 15.5 c 132,-1,23
 221 29 221 29 180.5 53.5 c 132,-1,24
 140 78 140 78 107 112.5 c 132,-1,25
 74 147 74 147 50.5 190 c 132,-1,26
 27 233 27 233 14 282.5 c 132,-1,27
 1 332 1 332 1 386 c 260,0,1
59 386 m 4,28,29
 59 317 59 317 83.5 258.5 c 132,-1,30
 108 200 108 200 149 156.5 c 132,-1,31
 190 113 190 113 245.5 88 c 132,-1,32
 301 63 301 63 364 63 c 260,33,34
 427 63 427 63 482.5 88 c 132,-1,35
 538 113 538 113 579.5 156.5 c 132,-1,36
 621 200 621 200 644.5 258.5 c 132,-1,37
 668 317 668 317 668 386 c 4,38,39
 668 454 668 454 644.5 512.5 c 132,-1,40
 621 571 621 571 579.5 614.5 c 132,-1,41
 538 658 538 658 482.5 682.5 c 132,-1,42
 427 707 427 707 364 707 c 260,43,44
 301 707 301 707 245.5 682.5 c 132,-1,45
 190 658 190 658 149 614.5 c 132,-1,46
 108 571 108 571 83.5 512.5 c 132,-1,47
 59 454 59 454 59 386 c 4,28,29
289 348 m 5,48,-1
 289 175 l 5,49,-1
 217 175 l 5,50,-1
 217 609 l 5,51,-1
 358 609 l 6,52,53
 396 609 396 609 426.5 601 c 132,-1,54
 457 593 457 593 478.5 577 c 132,-1,55
 500 561 500 561 511.5 536 c 132,-1,56
 523 511 523 511 523 478 c 4,57,58
 523 446 523 446 506 422 c 132,-1,59
 489 398 489 398 457 382 c 5,60,61
 474 375 474 375 486.5 364 c 132,-1,62
 499 353 499 353 506.5 339.5 c 132,-1,63
 514 326 514 326 517 310 c 132,-1,64
 520 294 520 294 520 276 c 6,65,-1
 520 248 l 6,66,67
 520 229 520 229 522 212 c 132,-1,68
 524 195 524 195 529 183 c 5,69,-1
 529 175 l 5,70,-1
 455 175 l 5,71,72
 452 182 452 182 450.5 192 c 132,-1,73
 449 202 449 202 448 212.5 c 132,-1,74
 447 223 447 223 447 233 c 132,-1,75
 447 243 447 243 447 248 c 6,76,-1
 447 275 l 6,77,78
 447 312 447 312 430 330 c 132,-1,79
 413 348 413 348 372 348 c 6,80,-1
 289 348 l 5,48,-1
289 413 m 5,81,-1
 369 413 l 6,82,83
 385 414 385 414 400 418 c 132,-1,84
 415 422 415 422 426 429.5 c 132,-1,85
 437 437 437 437 444 448.5 c 132,-1,86
 451 460 451 460 451 476 c 4,87,88
 451 495 451 495 446 508 c 132,-1,89
 441 521 441 521 430 529 c 132,-1,90
 419 537 419 537 401.5 540.5 c 132,-1,91
 384 544 384 544 358 544 c 6,92,-1
 289 544 l 5,93,-1
 289 413 l 5,81,-1
EndSplineSet
Validated: 1025
EndChar

StartChar: AE
Encoding: 198 198 191
Width: 879
Flags: W
LayerCount: 2
Fore
SplineSet
411 725 m 1,0,-1
 41 43 l 1,1,-1
 -2 22 l 1,2,-1
 -2 0 l 1,3,-1
 169 0 l 1,4,-1
 169 22 l 1,5,-1
 109 51 l 1,6,-1
 169 171 l 1,7,-1
 441 171 l 1,8,-1
 441 0 l 1,9,-1
 876 0 l 1,10,-1
 876 128 l 1,11,-1
 854 128 l 1,12,-1
 833 85 l 1,13,-1
 748 43 l 1,14,-1
 535 43 l 1,15,-1
 535 341 l 1,16,-1
 683 341 l 1,17,-1
 726 256 l 1,18,-1
 748 256 l 1,19,-1
 748 469 l 1,20,-1
 726 469 l 1,21,-1
 683 384 l 1,22,-1
 535 384 l 1,23,-1
 535 683 l 1,24,-1
 705 683 l 1,25,-1
 791 640 l 1,26,-1
 812 597 l 1,27,-1
 833 597 l 1,28,-1
 833 746 l 1,29,-1
 791 725 l 1,30,-1
 411 725 l 1,0,-1
441 213 m 1,31,-1
 190 213 l 1,32,-1
 442 679 l 1,33,-1
 441 213 l 1,31,-1
EndSplineSet
Validated: 9
EndChar

StartChar: sterling
Encoding: 163 163 192
Width: 458
Flags: W
LayerCount: 2
Fore
SplineSet
218 351 m 1025,0,-1
100 12 m 1,1,-1
 18 0 l 1,2,-1
 -41 23 l 1,3,4
 -80 62 -80 62 -67 84 c 1,5,-1
 -68 84 l 1,6,-1
 -55 125 l 2,7,8
 -46 141 -46 141 -23 159 c 0,9,10
 -12 168 -12 168 4 174 c 0,11,12
 33 183 33 183 50 182 c 0,13,14
 58 182 58 182 65 181 c 1,15,-1
 26 351 l 1,16,-1
 -60 351 l 1,17,-1
 -60 378 l 1,18,-1
 15 378 l 1,19,-1
 -15 452 l 1,20,21
 -26 492 -26 492 -19 538 c 0,22,23
 -16 555 -16 555 22 604 c 0,24,25
 34 619 34 619 43 626 c 0,26,27
 74 646 74 646 85 647 c 0,28,29
 173 655 173 655 213 647 c 0,30,31
 267 636 267 636 299 604 c 0,32,33
 316 587 316 587 299 561 c 0,34,35
 285 539 285 539 256 540 c 0,36,37
 234 540 234 540 213 561 c 1,38,-1
 193 604 l 1,39,40
 162 613 162 613 85 604 c 0,41,42
 69 602 69 602 56 590 c 0,43,44
 46 580 46 580 43 561 c 0,45,46
 38 534 38 534 43 519 c 0,47,48
 58 473 58 473 74 434 c 2,49,-1
 96 378 l 1,50,-1
 218 378 l 1,51,-1
 218 351 l 1,52,-1
 107 351 l 1,53,-1
 159 106 l 2,54,55
 160 105 160 105 161 105 c 2,56,-1
 211 46 l 2,57,58
 221 37 221 37 231 40 c 0,59,60
 256 48 256 48 283 68 c 1,61,-1
 316 104 l 1,62,-1
 337 97 l 1,63,-1
 325 56 l 2,64,65
 316 41 316 41 292 22 c 0,66,67
 280 12 280 12 265 8 c 0,68,69
 236 -1 236 -1 219 -1 c 0,70,71
 194 0 194 0 178 11 c 0,72,73
 161 23 161 23 131 53 c 1,74,-1
 100 12 l 1,1,-1
0 74 m 5,75,-1
 39 46 l 1,76,77
 53 49 53 49 62 58 c 0,78,79
 70 66 70 66 77 87 c 0,80,81
 80 97 80 97 80 110 c 1,82,-1
 59 135 l 2,83,84
 51 144 51 144 38 141 c 0,85,86
 13 133 13 133 -14 113 c 1,87,-1
 0 74 l 5,75,-1
EndSplineSet
Validated: 33
EndChar

StartChar: section
Encoding: 167 167 193
Width: 373
Flags: W
LayerCount: 2
Fore
SplineSet
79 10 m 4,0,1
 40 22 40 22 15 57 c 4,2,3
 2 76 2 76 15 103 c 4,4,5
 26 127 26 127 48 127 c 4,6,7
 63 127 63 127 79 103 c 5,8,-1
 95 57 l 5,9,10
 113 48 113 48 175 57 c 4,11,12
 188 59 188 59 197 72 c 4,13,14
 205 83 205 83 207 103 c 4,15,16
 212 141 212 141 207 150 c 4,17,18
 189 182 189 182 149 200 c 5,19,-1
 129 205 l 6,20,21
 115 206 115 206 103 210 c 4,22,23
 77 218 77 218 57 235 c 4,24,25
 51 239 51 239 48 244 c 4,26,27
 20 271 20 271 15 291 c 4,28,29
 8 323 8 323 15 385 c 4,30,31
 16 400 16 400 31 432 c 4,32,33
 37 446 37 446 48 456 c 4,34,35
 52 460 52 460 55 463 c 5,36,37
 41 480 41 480 38 492 c 4,38,39
 31 524 31 524 38 586 c 4,40,41
 40 601 40 601 55 633 c 4,42,43
 62 648 62 648 71 656 c 4,44,45
 94 678 94 678 103 680 c 4,46,47
 162 691 162 691 199 680 c 4,48,49
 238 668 238 668 263 633 c 4,50,51
 276 614 276 614 263 586 c 4,52,53
 252 562 252 562 230 563 c 4,54,55
 215 563 215 563 199 586 c 5,56,-1
 183 633 l 5,57,58
 165 642 165 642 103 633 c 4,59,60
 90 631 90 631 81 618 c 4,61,62
 73 607 73 607 71 586 c 4,63,64
 66 548 66 548 71 539 c 4,65,66
 89 507 89 507 129 489 c 5,67,-1
 149 484 l 6,68,69
 163 483 163 483 175 479 c 4,70,71
 201 471 201 471 221 454 c 4,72,73
 227 450 227 450 230 446 c 4,74,75
 258 419 258 419 263 398 c 4,76,77
 270 366 270 366 263 305 c 4,78,79
 262 290 262 290 247 257 c 4,80,81
 241 243 241 243 230 234 c 4,82,83
 226 230 226 230 223 227 c 5,84,85
 237 210 237 210 240 198 c 4,86,87
 247 166 247 166 240 103 c 4,88,89
 238 88 238 88 223 57 c 4,90,91
 216 42 216 42 207 33 c 4,92,93
 184 11 184 11 175 10 c 4,94,95
 116 -1 116 -1 79 10 c 4,0,1
84 433 m 4,96,97
 82 433 82 433 79 432 c 4,98,99
 66 430 66 430 58 416 c 4,100,101
 50 405 50 405 48 385 c 4,102,103
 43 347 43 347 48 339 c 4,104,105
 60 319 60 319 101 299 c 5,106,-1
 157 284 l 6,107,108
 174 275 174 275 194 257 c 4,109,110
 196 257 196 257 199 257 c 4,111,112
 212 259 212 259 220 273 c 4,113,114
 228 284 228 284 230 305 c 4,115,116
 235 343 235 343 230 351 c 4,117,118
 218 371 218 371 177 390 c 5,119,-1
 121 405 l 6,120,121
 105 414 105 414 84 433 c 4,96,97
EndSplineSet
Validated: 33
EndChar

StartChar: florin
Encoding: 402 402 194
Width: 365
Flags: W
LayerCount: 2
Fore
SplineSet
119 -131 m 1,0,1
 107 -158 107 -158 33 -255 c 24,2,3
 24 -268 24 -268 9 -276 c 1,4,-1
 157 362 l 1,5,-1
 84 362 l 1,6,-1
 93 406 l 1,7,-1
 166 406 l 1,8,-1
 198 543 l 24,9,10
 211 573 211 573 287 680 c 24,11,12
 296 694 296 694 311 702 c 24,13,14
 337 719 337 719 352 725 c 24,15,16
 371 725 371 725 391 725 c 24,17,18
 422 717 422 717 424 705 c 24,19,20
 417 673 417 673 410 640 c 24,21,22
 396 618 396 618 367 618 c 24,23,24
 348 618 348 618 333 640 c 24,25,-1
 338 662 l 24,26,27
 333 662 333 662 314 638 c 24,28,29
 288 604 288 604 286 591 c 24,30,-1
 243 406 l 1,31,-1
 391 406 l 1,32,-1
 381 362 l 1,33,-1
 232 362 l 1,34,-1
 119 -131 l 1,0,1
EndSplineSet
Validated: 1
EndChar

StartChar: yen
Encoding: 165 165 195
Width: 714
Flags: W
LayerCount: 2
Fore
SplineSet
156 218 m 5,0,-1
 539 218 l 5,1,-1
 539 169 l 5,2,-1
 156 169 l 5,3,-1
 156 218 l 5,0,-1
156 318 m 1,4,-1
 539 318 l 1,5,-1
 539 269 l 1,6,-1
 156 269 l 1,7,-1
 156 318 l 1,4,-1
EndSplineSet
Refer: 60 89 N 1 0 0 1 0 0 2
Validated: 32773
EndChar

StartChar: uni00AD
Encoding: 173 173 196
Width: 458
Flags: W
LayerCount: 2
Fore
SplineSet
0 384 m 1,0,-1
 0 427 l 1,1,-1
 384 427 l 1,2,-1
 384 384 l 1,3,-1
 0 384 l 1,0,-1
EndSplineSet
Validated: 1
EndChar

StartChar: periodcentered
Encoding: 183 183 197
Width: 458
Flags: W
LayerCount: 2
Fore
SplineSet
44 342 m 1,0,-1
 1 385 l 1,1,-1
 1 427 l 1,2,-1
 44 470 l 1,3,-1
 86 470 l 1,4,-1
 129 427 l 1,5,-1
 129 385 l 1,6,-1
 86 342 l 1,7,-1
 44 342 l 1,0,-1
0 384 m 1,8,-1
 0 427 l 1025,9,-1
EndSplineSet
Validated: 3
EndChar
